/* XPM */
static char *result[] = {
/* columns rows colors chars-per-pixel */
"50 50 182 2 ",
"   c #3F2C28",
".  c #3E2B27",
"X  c #5E2B1A",
"o  c #6B2D1B",
"O  c #632C1B",
"+  c #702D18",
"@  c #6C311D",
"#  c #74331C",
"$  c #793D1F",
"%  c #7A341D",
"&  c #432E29",
"*  c #46312A",
"=  c #4A362C",
"-  c #5B3B2C",
";  c #6B3B24",
":  c #663726",
">  c #733B24",
",  c #773D27",
"<  c #594536",
"1  c #7F4024",
"2  c #654B39",
"3  c #784838",
"4  c #6A563C",
"5  c #6D5B3A",
"6  c #685338",
"7  c #75553A",
"8  c #79563A",
"9  c #73603F",
"0  c #6D5941",
"q  c #715E43",
"w  c #795946",
"e  c #745E52",
"r  c #756245",
"t  c #7B6847",
"y  c #7E6B4A",
"u  c #786548",
"i  c #7E6F55",
"p  c #7C7270",
"a  c #82391F",
"s  c #933A1F",
"d  c #8C3B21",
"f  c #823E29",
"g  c #813F24",
"h  c #953E23",
"j  c #86411D",
"k  c #984328",
"l  c #9B4524",
"z  c #8D4631",
"x  c #A34B24",
"c  c #AC5523",
"v  c #B45C23",
"b  c #B0573B",
"n  c #9C6D3B",
"m  c #956838",
"M  c #A76F2E",
"N  c #BA6423",
"B  c #A8712E",
"V  c #A7702D",
"C  c #AA7231",
"Z  c #A9783C",
"A  c #B37637",
"S  c #C36B23",
"D  c #C96F23",
"F  c #C06723",
"G  c #CC7223",
"H  c #D57934",
"J  c #835B4F",
"K  c #855F53",
"L  c #965F50",
"P  c #9E5944",
"I  c #AC5A41",
"U  c #806D4C",
"Y  c #857245",
"T  c #927E42",
"R  c #986051",
"E  c #8A7658",
"W  c #8D795A",
"Q  c #877557",
"!  c #92785D",
"~  c #AC644B",
"^  c #A9674B",
"/  c #B4684D",
"(  c #AA7B43",
")  c #BE7B43",
"_  c #A06655",
"`  c #B26D53",
"'  c #B8755E",
"]  c #BF7357",
"[  c #8B7369",
"{  c #947F63",
"}  c #B97761",
"|  c #C25B4C",
" . c #C56253",
".. c #CB6B5B",
"X. c #CB6A53",
"o. c #C67658",
"O. c #D3765A",
"+. c #DB7B5F",
"@. c #C87860",
"#. c #D27D63",
"$. c #D17361",
"%. c #A78918",
"&. c #F7D20A",
"*. c #FBD827",
"=. c #98886D",
"-. c #9B857A",
";. c #A38F70",
":. c #B88677",
">. c #A89475",
",. c #B0A166",
"<. c #CA824E",
"1. c #CD8351",
"2. c #C68364",
"3. c #D18161",
"4. c #DD8966",
"5. c #C79378",
"6. c #F68E6F",
"7. c #E28A70",
"8. c #F88F70",
"9. c #E5987C",
"0. c #F39477",
"q. c #FC9475",
"w. c #F69579",
"e. c #FE9779",
"r. c #FE9B7E",
"t. c #DBC95E",
"y. c #898180",
"u. c #9B9489",
"i. c #948D84",
"p. c #A0998D",
"a. c #AC9683",
"s. c #A09B91",
"d. c #B39B86",
"f. c #B9A386",
"g. c #BAA492",
"h. c #B2AFAB",
"j. c #B4B0AB",
"k. c #B4B5B6",
"l. c #B5B7B9",
"z. c #B6B8B9",
"x. c #ADA7A6",
"c. c #FF9E81",
"v. c #C2AB8D",
"b. c #C5AE91",
"n. c #D6AE92",
"m. c #CDB99D",
"M. c #E4A58F",
"N. c #FEA185",
"B. c #FEA68A",
"V. c #FEA98C",
"C. c #E3A893",
"Z. c #E7B59C",
"A. c #F7B195",
"S. c #FCB194",
"D. c #FBB79B",
"F. c #D1BCA2",
"G. c #E8BDA6",
"H. c #FDBFA5",
"J. c #FBD58A",
"K. c #FCE184",
"L. c #D8C0A9",
"P. c #FDC0A6",
"I. c #EAD1AF",
"U. c #E4CDB4",
"Y. c #E8CFB3",
"T. c #EFC7B0",
"R. c #F1CDB6",
"E. c #EAD1B5",
"W. c #EED6BB",
"Q. c #EFD8BD",
"!. c #F3D7BD",
"~. c #FCD5BC",
"^. c #F1D9BE",
"/. c #F8D8BF",
"(. c #F6DEC5",
"). c #FCDCC3",
"_. c #F6D7C0",
"`. c #FCE5CD",
"'. c #F8E1C7",
"]. c #FDE8D0",
"[. c #FBE7D4",
"{. c None",
/* pixels */
"{.{.{.{.{.{.{.{.{.{.{.{.{.{.{.{.{.{.{.{.{.{.{.{.{.{.{.{.{.{.{.{.{.{.{.{.{.{.{.{.{.{.{.{.{.{.{.{.{.{.",
"{.{.{.{.{.{.{.{.{.{.{.{.{.{.{.{.{.{.{.{.{.{.{.{.{.{.{.{.{.{.{.{.{.{.{.{.{.{.{.{.{.{.{.{.{.{.{.{.{.{.",
"{.{.{.{.{.{.{.{.{.{.{.{.{.{.{.{.{.{.{.{.{.{.{.{.{.{.{.{.{.{.{.{.{.{.{.{.{.{.{.{.{.{.{.{.{.{.{.{.{.{.",
"{.{.{.{.{.{.{.{.{.{.{.{.{.{.{.{.{.{.{.{.{.{.{.{.{.{.{.{.{.{.{.{.{.{.{.{.{.{.{.{.{.{.{.{.{.{.{.{.{.{.",
"{.{.{.{.{.{.{.{.{.{.{.{.{.{.{.{.{.{.{.{.{.{.{.{.{.{.{.{.{.{.{.{.{.{.{.{.{.{.{.{.{.{.{.{.{.{.{.{.{.{.",
"{.{.{.{.{.{.{.{.{.{.{.{.{.{.{.{.{.{.`.`.{.{.{.{.{.{.{.{.{.{.{.{.{.{.{.{.{.{.{.{.{.{.{.{.{.{.{.{.{.{.",
"{.{.{.{.{.{.{.{.{.{.{.{.{.{.{.{.{.{.{.*.K.[.].`.`.`.`.`.{.{.{.{.{.{.{.{.{.{.{.{.{.{.{.{.{.{.{.{.{.{.",
"{.{.{.{.{.{.{.{.{.{.{.{.{.{.{.{.{.{.{.*.J.~.~.~.~.`.`.`.{.{.{.{.{.{.{.{.{.{.{.{.{.{.{.{.{.{.{.{.{.{.",
"{.{.{.{.{.{.{.{.{.{.{.{.{.{.{.{.{.{.{.E.A.c.N.c.V.).].`.V.r.{.{.{.{.{.{.{.{.{.{.{.{.{.{.{.{.{.{.{.{.",
"{.{.{.{.{.{.{.{.{.{.{.{.{.{.{.{.{.{.{.A.N.r.r.r.N.D.D.D.N.r.r.{.{.{.{.{.{.{.{.{.{.{.{.{.{.{.{.{.{.{.",
"{.{.{.{.{.{.{.{.{.{.{.{.{.{.{.{.{.{.{.r.r.N.B.B.B.c.r.c.B.V.V.{.{.{.{.{.{.{.{.{.{.{.{.{.{.{.{.{.{.{.",
"{.{.{.{.{.{.{.{.{.{.{.{.{.{.{.{.{.{.{.r.r.V.).`.).N.r.N.~.).`.{.{.{.{.{.{.{.{.{.{.{.{.{.{.{.{.{.{.{.",
"{.{.{.{.{.{.{.{.{.{.{.{.{.{.{.{.{.{.o.A.B.N.H.Z.C.c.c.c.M.Z.H.{.{.{.{.{.{.{.{.{.{.{.{.{.{.{.{.{.{.{.",
"{.{.{.{.{.{.{.{.{.{.{.{.{.{.{.{.{.h ^ U.A.N.N.7.$.0.c.e.#.7.N.{.{.{.{.{.{.{.{.{.{.{.{.{.{.{.{.{.{.{.",
"{.{.{.{.{.{.{.{.{.{.{.{.{.{.{.{.h h ^ Y._.(.)._.T.$.X...G./.).{.{.{.{.{.{.{.{.{.{.{.{.{.{.{.{.{.{.{.",
"{.{.{.{.{.{.{.{.{.{.{.{.{.{.{.{.h ^ 5.!.'.].`.[._...| X.R.].`.{.{.{.{.{.{.{.{.{.{.{.{.{.{.{.{.{.{.{.",
"{.{.{.{.{.{.{.{.{.{.{.{.{.{.{.{.k n.^.`.`.`.`.]._.../ ..T.`.`.{.{.{.{.{.{.{.{.{.{.{.{.{.{.{.{.{.{.{.",
"{.{.{.{.{.{.{.{.{.{.{.{.{.{.k h k n.^.`.`.`.].`.(.G.Z.F.(.`.`.' s {.{.{.{.{.{.{.{.{.{.{.{.{.{.{.{.{.",
"{.{.{.{.{.{.{.{.{.{.{.{.{.{.h h k n.^.`.`.].].`.`._.Q._.(.`.`.` s {.{.{.{.{.{.{.{.{.{.{.{.{.{.{.{.{.",
"{.{.{.{.{.{.{.{.{.{.{.{.{.h h h k n.Q.`.`.`.`.`.`.`.`.`.].`.`.` h {.{.{.{.{.{.{.{.{.{.{.{.{.{.{.{.{.",
"{.{.{.{.{.{.{.{.{.{.{.{.{.k O.~ - ! f.!.'.].].`.`.].`.`.].`.`.M.#.{.{.{.{.{.{.{.{.{.{.{.{.{.{.{.{.{.",
"{.{.{.{.{.{.{.{.{.{.{.{.{.b w.' = 6 { Y.(.].`.`.`.`.`.`.`.`.`.V.c.{.{.{.{.{.{.{.{.{.{.{.{.{.{.{.{.{.",
"{.{.{.{.{.{.{.{.{.{.{.{.{.r.r.2.6 = e Y.(.`.].`.].`.`.`.`.`.`.S.c.c.{.{.{.{.{.{.{.{.{.{.{.{.{.{.{.{.",
"{.{.{.{.{.{.{.{.{.{.{.{.c.r.c.2.5 6 q [ F.(.`.`.`.`.`.`.`.U.f.9.q.c.{.{.{.{.{.{.{.{.{.{.{.{.{.{.{.{.",
"{.{.{.{.{.{.{.{.{.{.{.c.r.c.N.2.5 y q = d.W.`.`.].`.`.`.].F.U #.6.e.{.{.{.{.{.{.{.{.{.{.{.{.{.{.{.{.",
"{.{.{.{.{.{.{.{.{.{.{.c.c.c.r.2.5 u y u b.W.`.`.`.`.`.].].F.U 3.6.c.1.B {.{.{.{.{.{.{.{.{.{.{.{.{.{.",
"{.{.{.{.{.{.{.{.{.{.{.N.c.r.r.2.5 t U U b.Q.`.`.].].`.`.].F.U 3.6.c.<.B {.{.{.{.{.{.{.{.{.{.{.{.{.{.",
"{.{.{.{.{.{.{.{.{.{.{.r.c.r.q.o.5 t U y v.E.`.`.`.`.`.`.'.m.U #.6.c.<.B {.{.{.{.{.{.{.{.{.{.{.{.{.{.",
"{.{.{.{.{.{.{.{.{.{.{.r.r.r.e.] 5 t U U W ;.E.'.`.`.`.`.>.W U 3.6.c.<.B {.{.{.{.{.{.{.{.{.{.{.{.{.{.",
"{.{.{.{.{.{.{.{.{.{.{.r.r.r.O._ 5 r t U y Q a.L.(.`.U.g.W y U ` O.c.<.C {.{.{.{.{.{.{.{.{.{.{.{.{.{.",
"{.{.{.{.{.{.{.{.{.{.{.6.r.0., 1 5 5 9 U u w & ;.W.`.a.* r y U ; z e.<.( j.{.{.{.{.{.{.{.{.{.{.{.{.{.",
"{.{.{.{.{.{.{.{.{.{.{.{.r.0.j @ @ 6 9 U 0 < 0 W =.=.W 4 < < 1 @ 1 ) A ( j.{.{.{.{.{.{.{.{.{.{.{.{.{.",
"{.{.{.{.{.{.{.{.{.{.{.{.{.0.f > w 4 5 q < < y y y y y y < - o O , V B ( j.{.{.{.{.{.{.{.{.{.{.{.{.{.",
"{.{.{.{.{.{.{.{.{.{.{.{.{.0., K h.i 2 & 4 U y U y U y y y 7 o o $ V B ( j.{.{.{.{.{.{.{.{.{.{.{.{.{.",
"{.{.{.{.{.{.{.{.{.{.{.. ' e.X.:.k.s.i.y.u.p.p.p.p.p.p.u.Q 7 o I o.4.o.Z j.{.{.{.{.{.{.{.{.{.{.{.{.{.",
"{.{.{.{.{.{.{.{.{.{.{.& R c.q.C.k.z.z.z.l.l.l.l.z.l.l.k.=.w o O.e.r.<.C j.{.{.{.{.{.{.{.{.{.{.{.{.{.",
"{.{.{.{.{.{.{.{.{.{.{.& _ N.r.n.k.z.z.z.z.z.z.z.l.k.l.l.l.-.o #.r.r.<.B {.{.{.{.{.{.{.{.{.{.{.{.{.{.",
"{.{.{.{.{.{.{.{.{.{.{.{.I ../ :.k.-.[ p p p p ,.t.t.,.p [ J o I O.r.) B {.{.{.{.{.{.{.{.{.{.{.{.{.{.",
"{.{.{.{.{.{.{.{.{.{.{.{.{.d + K x.3 X     =   %.&.&.%.& O o o d l {.B C {.{.{.{.{.{.{.{.{.{.{.{.{.{.",
"{.{.{.{.{.{.{.{.{.{.{.{.{.h h d 1 + < 6 q u u m T T Y q > # h h l {.C B {.{.{.{.{.{.{.{.{.{.{.{.{.{.",
"{.{.{.{.{.{.{.{.{.{.{.{.{.h k d % o > m m m 8 7 8 n n n g a k h {.{.{.C {.{.{.{.{.{.{.{.{.{.{.{.{.{.",
"{.{.{.{.{.{.{.{.{.{.{.{.{.{.h h h # j G G N @ o % S G D x h h {.{.{.{.{.{.{.{.{.{.{.{.{.{.{.{.{.{.{.",
"{.{.{.{.{.{.{.{.{.{.{.{.{.{.{.h h s l G G N @ o # S G D x h {.{.{.{.{.{.{.{.{.{.{.{.{.{.{.{.{.{.{.{.",
"{.{.{.{.{.{.{.{.{.{.{.{.{.{.{.{.h k x G S v % # $ S S N l {.{.{.{.{.{.{.{.{.{.{.{.{.{.{.{.{.{.{.{.{.",
"{.{.{.{.{.{.{.{.{.{.{.{.{.{.{.{.{.h x G c h h h l D v h {.{.{.{.{.{.{.{.{.{.{.{.{.{.{.{.{.{.{.{.{.{.",
"{.{.{.{.{.{.{.{.{.{.{.{.{.{.{.{.{.{.v G v {.{.{.{.D F {.{.{.{.{.{.{.{.{.{.{.{.{.{.{.{.{.{.{.{.{.{.{.",
"{.{.{.{.{.{.{.{.{.{.{.{.{.{.{.{.{.{.{.H {.{.{.{.{.H H {.{.{.{.{.{.{.{.{.{.{.{.{.{.{.{.{.{.{.{.{.{.{.",
"{.{.{.{.{.{.{.{.{.{.{.{.{.{.{.{.{.{.{.r.{.{.{.{.{.r.r.{.{.{.{.{.{.{.{.{.{.{.{.{.{.{.{.{.{.{.{.{.{.{.",
"{.{.{.{.{.{.{.{.{.{.{.{.{.{.{.{.{.{.{.L 2 {.{.{.{.R J {.{.{.{.{.{.{.{.{.{.{.{.{.{.{.{.{.{.{.{.{.{.{.",
"{.{.{.{.{.{.{.{.{.{.{.{.{.{.{.{.{.{.{.  & & {.{.{.& & & {.{.{.{.{.{.{.{.{.{.{.{.{.{.{.{.{.{.{.{.{.{."
};
