/* XPM */
static char *result[] = {
/* columns rows colors chars-per-pixel */
"50 50 174 2 ",
"   c #3F2C28",
".  c #5F2E1F",
"X  c #622D1D",
"o  c #6B2E1A",
"O  c #712F1B",
"+  c #6C311D",
"@  c #72311C",
"#  c #7C341E",
"$  c #7C3E1F",
"%  c #773B1D",
"&  c #422D29",
"*  c #512F26",
"=  c #5B2D20",
"-  c #4F3A2E",
";  c #4C3229",
":  c #513D2F",
">  c #573426",
",  c #4F3B31",
"<  c #523730",
"1  c #663320",
"2  c #6C3D26",
"3  c #6F3E28",
"4  c #743F26",
"5  c #594535",
"6  c #5F4B38",
"7  c #594435",
"8  c #754229",
"9  c #624D3B",
"0  c #694A32",
"q  c #774D34",
"w  c #6D5132",
"e  c #69563A",
"r  c #6D5B3A",
"t  c #6D5837",
"y  c #715D3C",
"u  c #79583C",
"i  c #73603F",
"p  c #6B5740",
"a  c #6E5A42",
"s  c #6F594D",
"d  c #765D46",
"f  c #776345",
"g  c #7A6645",
"h  c #7B6847",
"j  c #7A6749",
"k  c #7E6B4B",
"l  c #766156",
"z  c #863821",
"x  c #8C3B22",
"c  c #943E23",
"v  c #8E441F",
"b  c #89432C",
"n  c #994429",
"m  c #974427",
"M  c #844B33",
"N  c #975133",
"B  c #A34C23",
"V  c #A1482D",
"C  c #B45B24",
"Z  c #A74F34",
"A  c #A75337",
"S  c #B15730",
"D  c #957D31",
"F  c #A96C2E",
"G  c #BA6422",
"H  c #B46B2B",
"J  c #A9712E",
"K  c #BA712D",
"L  c #AA7331",
"P  c #A9783D",
"I  c #B17535",
"U  c #C26B22",
"Y  c #C96F24",
"T  c #CC7224",
"R  c #925D4E",
"E  c #875649",
"W  c #B75D41",
"Q  c #816D4C",
"!  c #846E5B",
"~  c #976050",
"^  c #8C7857",
"/  c #937F5F",
"(  c #93654D",
")  c #AE694E",
"_  c #AA7B43",
"`  c #A86C57",
"'  c #B26D5A",
"]  c #B6775C",
"[  c #B7785C",
"{  c #BC7A42",
"}  c #8E7A64",
"|  c #BF7762",
" . c #C25A4B",
".. c #C07C43",
"X. c #CE6E51",
"o. c #C56B50",
"O. c #CD7257",
"+. c #CB7D5E",
"@. c #D17459",
"#. c #C97D66",
"$. c #AB8D16",
"%. c #9A802B",
"&. c #C0A429",
"*. c #CEB022",
"=. c #FFDD06",
"-. c #FDD705",
";. c #FCDB38",
":. c #978364",
">. c #97816C",
",. c #AD987A",
"<. c #CA824E",
"1. c #C7804B",
"2. c #C68365",
"3. c #D38364",
"4. c #D18169",
"5. c #DF8B63",
"6. c #EA856B",
"7. c #F28B6D",
"8. c #E28F77",
"9. c #F78F71",
"0. c #E99075",
"q. c #F79375",
"w. c #FA9273",
"e. c #FA977A",
"r. c #FE9B7E",
"t. c #F4CC7D",
"y. c #F2D566",
"u. c #AA9381",
"i. c #B9A28C",
"p. c #B3AFA9",
"a. c #B4B0AB",
"s. c #B5B6B7",
"d. c #DC9B86",
"f. c #F59F83",
"g. c #FF9D80",
"h. c #C6AF91",
"j. c #DDA494",
"k. c #DAAD93",
"l. c #D4AA95",
"z. c #C8B194",
"x. c #D7B195",
"c. c #D0B99C",
"v. c #FEA184",
"b. c #FFA78B",
"n. c #E2AC97",
"m. c #FCAD91",
"M. c #E0B49B",
"N. c #F7B398",
"B. c #FDB99E",
"V. c #FEB69A",
"C. c #D0ACA2",
"Z. c #D3BCA1",
"A. c #FDBEA4",
"S. c #F2BDA2",
"D. c #FCE299",
"F. c #D8C3A9",
"G. c #FDC3A9",
"H. c #FDC1A7",
"J. c #EACCB2",
"K. c #FCCCB2",
"L. c #F0CCB1",
"P. c #EED5BA",
"I. c #EFD8BF",
"U. c #EBD2B6",
"Y. c #F1D9BE",
"T. c #FCD2B9",
"R. c #E1C8AC",
"E. c #F5DDC4",
"W. c #FCDCC3",
"Q. c #F7E1C9",
"!. c #FBE5CD",
"~. c #FDE9D1",
"^. c #FBE6D1",
"/. c None",
/* pixels */
"/./././././././././././././././././././././././././././././././././././././././././././././././././.",
"/./././././././././././././././././././././././././././././././././././././././././././././././././.",
"/./././././././././././././././././././././././././././././././././././././././././././././././././.",
"/./././././././././././././././././././././././././././././././././././././././././././././././././.",
"/./././././././././././././././././././././././././././././././././././././././././././././././././.",
"/./././././././././././././././././././././././././././././././././././././././././././././././././.",
"/./././././././././././././.!.!.!.~././././././././././././././././././././././././././././././././.",
"/./././././././././././././.!.!.!.D././././././././././././././././././././././././././././././././.",
"/././././././././././././././././.-.;.!.!.!.!.!.!.!././././././././././././././././././././././././.",
"/././././././././././././././././.y.t.B.A.B.B.T.!.~.K.r././././././././././././././././././././././.",
"/././.s.s././././././././././././.J.S.g.r.r.r.A.W.W.A.g././././././././././././././././././././././.",
"/./.s.s.s././././././././././././.g.g.g.r.r.r.v.v.b.g.r.g.r././././././././././././././././././././.",
"/./.s.s.s././././././././././././.g.r.g.V.H.H.m.r.r.m.G.H.A././././././././././././././././././././.",
"/./.s.s.s././././././././././././.g.v.g.K.Q.E.B.r.r.B.E.Q.Q././././././././././././././././././././.",
"/./.s.s.s./././././././././././.n k.S.r.v.v.4.0.g.v.0.4.f.b././././././././././././././././././././.",
"/./.s.s.s././././././././././.c n x.J.B.B.N.d.8.6.6.8.d.N.V././././././././././././././././././././.",
"/./.s.s.s./././././././././.c c n x.Y.!.~.!.~.d. . .d.^.!.!././././././././././././././././././././.",
"/./.s.s.s./././././././././.c ) x.P.!.!.!.!.!.d. . .d.~.!.!././././././././././././././././././././.",
"/./.s.s.s./././././././././.c ] U.Q.!.!.!.!.!.n.#.#.n.!.~.P././././././././././././././././././././.",
"/./.s.s.s././././././././.c c ] U.!.!.!.!.!.!.Y.J.J.E.~.~.k.c /././././././././././././././././././.",
"/./.s.s.s././././././.m m c c ] U.Q.!.!.!.!.!.!.E.E.!.!.~.k.c /././././././././././././././././././.",
"/.s.s.s.s././././././.c c c z ` c.Y.!.!.~.!.!.!.!.!.!.!.~.M.A /././././././././././././././././././.",
"s.s.s.s.s.s./././././.c c x * 7 g c.Y.!.!.!.!.!.!.!.~.!.~.K.e.r.g./././././././././././././././././.",
"/.C.j.j.l./././././.6.X.X.O.' ( y ! u.Y.!.!.!.!.!.!.!.!.!.W.G.b.r.g.<./././././././././././././././.",
"/./.g.w.9././././.w.w.w.e.g.v.2.e , s Z.I.!.!.!.~.!.!.!.!.!.I.m.r.g.<.J /./././././././././././././.",
"/./.g.g.g.r.r.g.g.g.r.r.r.g.v.2.r f a 7 i.Y.!.!.!.!.!.!.~.F.^ 3.9.r.<.J /./././././././././././././.",
"/./.` ` | r.g.r.e.r.g.g.g.g.g.2.r h f 6 i.P.!.!.!.!.!.!.Z.,.k 3.7.g.<.L /./././././././././././././.",
"/./.& & & /././.9.e.g.g.r.e.e.| r h Q Q h.P.!.!.~.!.~.E.:.j Q +.7.g.<.F /./././././././././././././.",
"/./././././././././././.S Z b q r h Q Q h.I.!.!.!.!.^.Q.:.k Q M N g.<._ p./././././././././././././.",
"/././././././././././././.x o 2 r h Q k ,.c.E.Q.!.!.!.E.:.j k 2 b 5..._ a./././././././././././././.",
"/././././././././././././.n O 8 r h Q k k :.R.E.!.!.!.E.:.k k 8 $ F L _ a./././././././././././././.",
"/././././././././././././.c o 8 r i f k k j s i.U.,.} l k k k 2 % J J _ a./././././././././././././.",
"/././././././././././././.c o 2 w t y k f r - >.z.^ e , r d d M N { I _ a./././././././././././././.",
"/././././././././././././.c @ o + w i k 5 , k Q Q Q k h < * @ O.w.r.<.P p./././././././././././././.",
"/././././././././././././.c O o + w e 5 9 a k k k k k k a 0 o @.e.g.<.L /./././././././././././././.",
"/././././././././././././.c O o + 0 6 ; a Q k k Q Q k k Q d o o.7.g...J /./././././././././././././.",
"/././././././././././././.c o o o ; : e j k k k k k k k k d o c V /.I J /./././././././././././././.",
"/././././././././././././.c @ o o = > 7 6 p 6 %.&.&.%.6 q q o z c /.L L /./././././././././././././.",
"/././././././././././././.c O o o o 1 &   &   $.=.=.$.& = o o x c /.L L /./././././././././././././.",
"/././././././././././././.c o o o o = & & &   $.=.=.$.& X o o z c /././././././././././././././././.",
"/././././././././././././.c 4 # o o X 7 7 7 5 %.*.*.J : 1 O # x c /././././././././././././././././.",
"/././././././././././././.c c z o o 2 t g Q k k Q Q Q Q 2 # c m c /././././././././././././././././.",
"/./././././././././././././.c c x O $ H K H 4 + 8 H K H m x c /././././././././././././././././././.",
"/./././././././././././././.c c c # v T T G O o % U T Y B c c /././././././././././././././././././.",
"/./././././././././././././././.c c B T T G @ o % U T Y B c /./././././././././././././././././././.",
"/././././././././././././././././.c B T C B z z x U G B /./././././././././././././././././././././.",
"/././././././././././././././././.Z S T B c c V S Y C c /./././././././././././././././././././././.",
"/././././././././././././././././.r.r././././.q.e./././././././././././././././././././././././././.",
"/././././././././././././././././.~ E & /././.R R < /./././././././././././././././././././././././.",
"/././././././././././././././././.& & & /././.&   ; & /././././././././././././././././././././././."
};
