/* XPM */
static char *result[] = {
/* columns rows colors chars-per-pixel */
"50 50 183 2 ",
"   c #3F2C28",
".  c #6D2F1B",
"X  c #612E1E",
"o  c #68301C",
"O  c #74311D",
"+  c #432E29",
"@  c #4E2D23",
"#  c #46312B",
"$  c #4A352D",
"%  c #513E3A",
"&  c #6C3A24",
"*  c #7D3D29",
"=  c #743C25",
"-  c #5A4636",
";  c #594635",
":  c #624E39",
">  c #774939",
",  c #6B573F",
"<  c #6D5B3A",
"1  c #695134",
"2  c #73603F",
"3  c #7C4F43",
"4  c #6D5A41",
"5  c #715E43",
"6  c #765143",
"7  c #705F57",
"8  c #766244",
"9  c #7B6847",
"0  c #7E6B4A",
"q  c #7A6748",
"w  c #8A3C25",
"e  c #953E23",
"r  c #86411D",
"t  c #87422E",
"y  c #9A452A",
"u  c #994625",
"i  c #814B34",
"p  c #994E36",
"a  c #9B513B",
"s  c #A44C27",
"d  c #A85023",
"f  c #B45B23",
"g  c #A74E33",
"h  c #B0563A",
"j  c #A8712E",
"k  c #A7702E",
"l  c #AA7232",
"z  c #B96B36",
"x  c #C26721",
"c  c #CB7124",
"v  c #C97C39",
"b  c #8A5647",
"n  c #955E4F",
"m  c #A15943",
"M  c #816D4D",
"N  c #8B704F",
"B  c #9A6252",
"V  c #857252",
"C  c #8C7859",
"Z  c #8B775B",
"A  c #937E5F",
"S  c #9B7657",
"D  c #876257",
"F  c #AD674C",
"G  c #AD684C",
"H  c #A56649",
"J  c #B76A4D",
"K  c #AA7A41",
"L  c #BC7A40",
"P  c #A06D5E",
"I  c #AB7557",
"U  c #B6735D",
"Y  c #887C6C",
"T  c #C35C4D",
"R  c #CA6653",
"E  c #C37C5C",
"W  c #D3795D",
"Q  c #C97C61",
"!  c #D17C64",
"~  c #F9D621",
"^  c #FCDC3B",
"/  c #B78954",
"(  c #978466",
")  c #978C7A",
"_  c #A38D6E",
"`  c #A78075",
"'  c #A99679",
"]  c #BC9A7C",
"[  c #CA824E",
"{  c #C48D5C",
"}  c #C58264",
"|  c #D18162",
" . c #DE8165",
".. c #D78C7A",
"X. c #DA8D75",
"o. c #E58668",
"O. c #F68D6F",
"+. c #EB946E",
"@. c #E58E72",
"#. c #F48F71",
"$. c #F1967A",
"%. c #FB977A",
"&. c #FE9B7E",
"*. c #F99375",
"=. c #C2A17C",
"-. c #F9D646",
";. c #9E8F8B",
":. c #AB9386",
">. c #B39B86",
",. c #BD9D82",
"<. c #A09A91",
"1. c #B9A48C",
"2. c #ADAAA4",
"3. c #B1AEAB",
"4. c #B4AAA5",
"5. c #B4B0AB",
"6. c #B0AFB0",
"7. c #B5B5B6",
"8. c #B5B6B8",
"9. c #B6B8B9",
"0. c #B9B9BA",
"q. c #BDB3B0",
"w. c #CC9E83",
"e. c #D29989",
"r. c #E19F82",
"t. c #FF9E81",
"y. c #C5A78B",
"u. c #C5AE91",
"i. c #CBB497",
"p. c #DDB89D",
"a. c #EBA38B",
"s. c #E2A48F",
"d. c #FEA285",
"f. c #FEA68A",
"g. c #FEA88B",
"h. c #F5A186",
"j. c #E3AC94",
"k. c #FAAE91",
"l. c #E0B59C",
"z. c #F7B295",
"x. c #FDB99E",
"c. c #FEB297",
"v. c #D0AEA5",
"b. c #C4B1AA",
"n. c #D3BDA2",
"m. c #CEB9B1",
"M. c #E4BFA6",
"N. c #FCBFA5",
"B. c #F5BBA1",
"V. c #C7C3BF",
"C. c #DBC7B5",
"Z. c #E9C6AD",
"A. c #E9CAAC",
"S. c #FDC3A8",
"D. c #EAD2AF",
"F. c #E3CDB6",
"G. c #E8CEB2",
"H. c #F8CEB4",
"J. c #E9D1B5",
"K. c #EFD5BA",
"L. c #EFD8BD",
"P. c #F3D6BD",
"I. c #FCD5BC",
"U. c #F6D7B8",
"Y. c #BFBFC0",
"T. c #C0BFC0",
"R. c #CAC9CA",
"E. c #DAD7D7",
"W. c #F5DEC4",
"Q. c #FBDBC2",
"!. c #E4DCD9",
"~. c #FCE6CE",
"^. c #F8E3C6",
"/. c #FDE8D0",
"(. c #FBE7D0",
"). c #E4DFE0",
"_. c #ECE6E5",
"`. c #EFE9E9",
"'. c #E5E1E1",
"]. c #F0EAEB",
"[. c #F6F3F3",
"{. c #FAF8F8",
"}. c None",
/* pixels */
"}.}.}.}.}.}.}.}.}.}.}.}.}.}.}.}.}.}.}.}.}.}.}.}.}.}.}.}.}.}.}.}.}.}.}.}.}.}.}.}.}.}.}.}.}.}.}.}.}.}.",
"}.}.}.}.}.}.}.}.}.}.}.}.}.}.}.}.}.}.}.}.}.}.}.}.}.}.}.}.}.}.}.}.}.}.}.}.}.}.}.}.}.}.}.}.}.}.}.}.}.}.",
"}.}.}.}.}.}.}.}.}.}.}.}.}.}.}.}.}.}.}.}.}.}.}.}.}.}.}.}.}.}.}.}.}.}.}.}.}.}.}.}.}.}.}.}.}.}.}.}.}.}.",
"}.}.}.}.}.}.}.}.}.}.}.}.}.}.}.}.}.}.}.}.}.}.}.}.}.}.}.}.}.}.}.}.}.}.}.}.}.}.}.}.}.}.}.}.}.}.}.}.}.}.",
"}.}.}.}.}.}.}.}.}.}.}.}.}.}.}.}.}.}.}.}.}.}.}.}.}.}.}.}.}.}.}.}.}.}.}.}.}.}.}.}.}.}.}.}.}.}.}.}.}.}.",
"}.}.}.}.}.}.}.}.}.}.}.}.}.}.}.}.}.}.}.~.~.~.}.}.}.}.}.}.}.}.}.}.}.}.}.}.}.}.}.}.}.}.}.}.}.}.}.}.}.}.",
"}.}.}.}.}.}.}.}.}.}.}.}.}.}.}.}.}.}.}.}.^ ^ ^./././.~.~./.}.}.}.}.}.}.}.}.}.}.}.}.}.}.}.}.}.}.}.}.}.",
"}.}.}.}.}.}.}.}.}.}.}.}.}.}.}.}.}.}.}.}.~ -.H.I.I.I.Q.~.~.^.}.}.}.}.}.}.}.}.}.}.}.}.}.}.}.}.}.}.}.}.",
"}.}.}.}.}.}.}.}.}.}.}.}.}.}.}.}.}.}.}.}.D.Z.d.t.t.t.N.~./.H.t.}.}.}.}.}.}.}.}.}.}.}.}.}.}.}.}.}.}.}.",
"}.}.}.}.}.}.}.}.}.}.}.}.}.}.}.}.}.}.}.}.k.k.t.t.&.&.g.x.x.k.t.&.}.}.}.}.}.}.}.}.}.}.}.}.}.}.}.}.}.}.",
"}.}.}.}.}.}.}.}.}.}.}.}.}.}.}.}.}.}.}.}.&.&.&.d.g.f.d.&.&.d.f.f.d.}.}.}.}.}.}.}.}.}.}.}.}.}.}.}.}.}.",
"}.}.}.}.}.}.}.}.}.}.}.}.}.}.}.}.}.}.}.}.&.&.t.S.~.^.S.&.&.c.Q.~.~.}.}.}.}.}.}.}.}.}.}.}.}.}.}.}.}.}.",
"}.}.}.}.}.}.}.}.}.}.}.}.}.}.}.}.}.}.}.}.r.z.t.c.N.j.r.t.t.h.j.B.N.}.}.}.}.}.}.}.}.}.}.}.}.}.}.}.}.}.",
"}.}.}.}.}.}.}.}.}.}.}.}.}.}.}.}.}.}.}.u w.G.f.t.t.! o.t.%.@.! $.d.}.}.}.}.}.}.}.}.}.}.}.}.}.}.}.}.}.",
"}.}.}.}.}.}.}.}.}.}.}.}.}.}.}.}.}.e e e e.J.Q.Q.Q.Q.s.R R X.P.Q.Q.}.}.}.}.}.}.}.}.}.}.}.}.}.}.}.}.}.",
"}.}.}.}.}.}.}.}.}.}.}.}.}.}.}.}.}.e p U p.W.~.(.(.(.s.T T ..~.~.~.}.}.}.}.}.}.}.}.}.}.}.}.}.}.}.}.}.",
"}.}.}.}.}.}.}.}.}.}.}.}.}.}.}.}.}.e F G.W.(.(.~.~.(.j.T T ..(.(.~.}.}.].].}.}.}.}.}.}.}.}.}.}.}.}.}.",
"}.}.}.}.}.}.}.}.}.}.}.}.}.}.}.}.e e F G.W.~.(.(.~.~.K.l.M.M.~.(.Z.y }.}.].].].}.}.}.}.}.}.}.}.}.}.}.",
"}.}.}.}.}.}.}.}.}.}.}.}.}.}.}.e e e F G.W.~.~.~.~.~.W.P.P.W.~.(.M.y }.}.}.].].}.}.}.}.}.}.}.}.}.}.}.",
"}.}.}.}.}.}.}.}.}.}.}.}.}.}.e u e e F G.W.~.~.~.(.~.~.~.~.~.~.(.M.y }.}.}.].`.].].}.}.}.}.}.}.}.}.}.",
"}.}.}.}.}.}.}.}.}.}.}.}.}.}.e h W t 1 _ n.W.~.~.~.~.~.~.~.~.~.(.H. .}.}.}.}.].].].].}.}.}.}.}.}.}.}.",
"}.}.}.}.}.}.}.}.}.}.}.}.}.}.g R &.6 ; 8 y.K.~.~.~./.~.~.~.~.~.~.I.d.+.}.}.}.].].`.].}.}.}.}.}.}.}.}.",
"}.}.}.}.}.}.}.}.}.}.}.}.}.s @.&.t.S , # >.L.~.~.~.~.~.~.~.~.(.(.I.d.[ j }.}.}.].].].}.}.}.}.}.}.}.}.",
"}.}.}.}.}.}.}.}.}.}.}.}.! W %.@.I V 4 # >.L.~.~./.~.~.~./.G.1.j.k.d.[ j }.}.}.}.].].].}.}.}.}.}.}.}.",
"}.}.}.}.}.}.}.}.}.}.}.&.t.t.t.} < 9 8 $ >.P.~.~.~.~.~.~./.n.0 ! O.&.[ j }.}.}.}.}.].`.].}.}.}.}.}.}.",
"}.}.}.}.}.}.}.}.}.}.}.t.&.t.t.} < 9 0 9 u.K.W.~.~.~.~.~./.n.M | O.&.[ j }.}.}.}.}.].].].}.}.}.}.}.}.",
"}.}.}.}.}.}.}.}.}.}.}.t.t.&.&.E < 9 0 M u.L.~.~.~.~.~.^.n.' M | O.&.[ l }.}.}.}.`.`.`.].}.}.}.}.}.}.",
"}.}.}.}.}.}.}.}.}.}.}.&.t.&.*.E < 9 M 0 y.J.~.~./.~.~.^.( 9 M | +.%.[ K 5.0.}.].].].].`.}.}.}.}.}.}.",
"}.}.}.}.}.}.}.}.}.}.}.&.&.&.*.E < 0 0 0 Z _ J.W.~.~.(.^.( 0 M | o.v j K 5.R.].`.].}.].`.}.}.}.}.}.}.",
"}.}.}.}.}.}.}.}.}.}.}.&.&.%.W H < 8 0 0 0 A F.W.~.(.F.1.C 0 0 J R l / =.R.E.].].}.}.].`.}.}.}.}.}.}.",
"}.}.}.}.}.}.}.}.}.}.}.O.%.*.r & < < 8 0 0 A A.W.~.(.:.+ 8 M 0 > O l n.].`.`.].}.}.].].`.}.}.}.}.}.}.",
"}.}.}.}.}.}.}.}.}.}.}.}.&.$.> o & 1 2 0 : : ( i.J.' Z , ; ; }.b.m.C.!.].`.`.].].].].}.}.}.}.}.}.}.}.",
"}.}.}.}.}.}.}.}.}.}.}.}.}.o.a * X 1 < 5 ; ; 9 ' i.V V ( 7 % }.].].].].`.].].`.`.`.].}.}.}.}.}.}.}.}.",
"}.}.}.}.}.}.}.}.}.}.}.}.}.s @.U # 1 : # , 0 M M V 9 ' `._._.}.[.`.].].].].].].].].}.}.}.}.}.}.}.}.}.",
"}.}.}.}.}.}.}.}.}.}.}.}.}.e b B U } I ; Y ) M 0 M }.}.].[.[.[.].`.`.`.].}.].].}.}.}.}.}.}.}.}.}.}.}.",
"}.}.}.}.}.}.}.}.}.}.}.}.}.e @ b &.&.X.D <.2.V 0 M }.}.[.{.[.`.`.].].].].}.}.`.}.}.}.}.}.}.}.}.}.}.}.",
"}.}.}.}.}.}.}.}.}.}.}.}.}.e . m t.t.r.6.}.}.}.}.}.}.}.}.[.`.].`.`.].}.}.].}.}.}.}.}.}.}.}.}.}.}.}.}.",
"}.}.}.}.}.}.}.}.}.}.}.}.}.e . t F e.v.8.Y.}.}.}.}.}.].[.].`.].`.].}.}.].}.}.}.}.}.}.}.}.}.}.}.}.}.}.",
"}.}.}.}.}.}.}.}.}.}.}.}.}.e = . & ;.6.8.9.9.}.}.}.}.`.`.`.`.].].}.}.].`.}.}.}.}.}.}.}.}.}.}.}.}.}.}.",
"}.}.}.}.}.}.}.}.}.}.}.}.}.e w p ;.3 D 8.8.9.9.}.}.}.].].].`.].}.}.].}.}.}.}.}.}.}.}.}.}.}.}.}.}.}.}.",
"}.}.}.}.}.}.}.}.}.}.}.}.}.e e p P = i ] 4.7.7.m.}.}.`.`.`.].}.}.}.].}.}.}.}.}.}.}.}.}.}.}.}.}.}.}.}.",
"}.}.}.}.}.}.}.}.}.}.}.}.}.}.e e e O r c ,.7.7.7.0.'.`.`.`.].}.].`.}.}.}.}.}.}.}.}.}.}.}.}.}.}.}.}.}.",
"}.}.}.}.}.}.}.}.}.}.}.}.}.}.}.u e w u c v { 7.7.9.T.E.`.].].].}.}.}.}.}.}.}.}.}.}.}.}.}.}.}.}.}.}.}.",
"}.}.}.}.}.}.}.}.}.}.}.}.}.}.}.}.u e d c x z :.4.8.7.R.!._.].`.}.}.}.}.}.}.}.}.}.}.}.}.}.}.}.}.}.}.}.",
"}.}.}.}.}.}.}.}.}.}.}.}.}.}.}.}.}.e s c d e u ` 9.7.7.0.).].}.}.}.}.}.}.}.}.}.}.}.}.}.}.}.}.}.}.}.}.",
"}.}.}.}.}.}.}.}.}.}.}.}.}.}.}.}.}.}.f c f }.}.}.}.8.7.8.}.}.}.}.}.}.}.}.}.}.}.}.}.}.}.}.}.}.}.}.}.}.",
"}.}.}.}.}.}.}.}.}.}.}.}.}.}.}.}.}.}.}.c }.}.}.}.}.b.q.8.}.}.}.}.}.}.}.}.}.}.}.}.}.}.}.}.}.}.}.}.}.}.",
"}.}.}.}.}.}.}.}.}.}.}.}.}.}.}.}.}.t.t.}.}.}.}.}.}.t.h.}.}.}.}.}.}.}.}.}.}.}.}.}.}.}.}.}.}.}.}.}.}.}.",
"}.}.}.}.}.}.}.}.}.}.}.}.}.}.}.}.}.B b + }.}.}.}.}.n 3 }.}.}.}.}.}.}.}.}.}.}.}.}.}.}.}.}.}.}.}.}.}.}.",
"}.}.}.}.}.}.}.}.}.}.}.}.}.}.}.}.}.  + + }.}.}.}.}.+ + + }.}.}.}.}.}.}.}.}.}.}.}.}.}.}.}.}.}.}.}.}.}."
};
