/* XPM */
static char *result[] = {
/* columns rows colors chars-per-pixel */
"50 50 87 1 ",
"  c #A7532E",
". c #A8542F",
"X c #A75530",
"o c #A85631",
"O c #AB5936",
"+ c #AD5C39",
"@ c #B05F3E",
"# c #B0603E",
"$ c #B36544",
"% c #B86747",
"& c #B86748",
"* c #B56A4A",
"= c #BA6C4D",
"- c #BD6F51",
"; c #BB7255",
": c #BC765C",
"> c #BD785F",
", c #BF7B63",
"< c #C07557",
"1 c #C3755A",
"2 c #C37A5D",
"3 c #C37D62",
"4 c #C97D63",
"5 c #C48166",
"6 c #C88166",
"7 c #C48369",
"8 c #CB846A",
"9 c #CD886E",
"0 c #D1826D",
"q c #C68772",
"w c #C78975",
"e c #C98B75",
"r c #CB8F7E",
"t c #D38670",
"y c #D48973",
"u c #D88B77",
"i c #D88F79",
"p c #CD927E",
"a c #D5937C",
"s c #DB937E",
"d c #CE9484",
"f c #D29684",
"g c #DD9682",
"h c #D39A85",
"j c #DD9984",
"k c #D39A8B",
"l c #DA9F8E",
"z c #E19A87",
"x c #E39D8A",
"c c #DBA594",
"v c #DBA896",
"b c #DCAB99",
"n c #DFB09F",
"m c #E1A18D",
"M c #E4A695",
"N c #E5A996",
"B c #E5AB9C",
"V c #E9AD9C",
"C c #E0B09F",
"Z c #EBB09F",
"A c #DFAEA1",
"S c #E2B3A3",
"D c #EEB4A4",
"F c #EFB7A8",
"G c #E6BBAC",
"H c #EEBAAB",
"J c #F0B6A6",
"K c #F0BBAC",
"L c #ECBEB0",
"P c #F1BEB1",
"I c #EBC1B5",
"U c #EDC5BB",
"Y c #F3C2B5",
"T c #F3C6BA",
"R c #F4C9BD",
"E c #EFCAC0",
"W c #F3CDC3",
"Q c #F8CDC2",
"! c #F5D0C7",
"~ c #F7D5CD",
"^ c #F8D5CC",
"/ c #F7D7D0",
"( c #F7D8D0",
") c #F9D9D2",
"_ c #FCE7E2",
"` c #FDE9E4",
"' c None",
/* pixels */
"''''''''''''''''''''''''''''''''''''''''''''''''''",
"''''''''''''''''''''''''''''''''''''''''''''''''''",
"''''''''''''''''''''''''''''''''''''''''''''''''''",
"''''''''''''''''''''''''''''''''''''''''''''''''''",
"''''''''''''''''''''''''''''''''''''''''''''''''''",
"''''''''''''''''''''''''''''''''''''''''''''''''''",
"''''''''''''''''''''''oXoooX.'''''''''''''''''''''",
"'''''''''''''''''''''e76553573''''''''''''''''''''",
"''''''''''''''''''+$v~!EEWWEWv$+#'''''''''''''''''",
"'''''''''''''''''yhcI((((()))Uca8#''''''''''''''''",
"''''''''''''''''2mY^(~~~~~~~^(~Yx1''''''''''''''''",
"''''''''''''''O6NDI~(~(~~(~(~(^IDM6O''''''''''''''",
"''''''''''''''O6DJKY!~~~(~~~~!THJD6O''''''''''''''",
"''''''''''''''O6DJDFT~~~~~~^^TDDDD6+''''''''''''''",
"''''''''''''''O6DJDDDY~~~(~^YHDDDD6O''''''''''''''",
"''''''''''''''O6DDDDDHTRRRRTFDDDDD4O''''''''''''''",
"''''''''''''''O4ZJDJDDJDJDDJDDDJFD4O''''''''''''''",
"''''''''''''''O6DJDDJDDDDDDDDJDDFD7O''''''''''''''",
"''''''''''''''O3NDJDDDDJJDDJDDJDDM3O''''''''''''''",
"''''''''''''''+;fBDDJDJDDJJDJJDDVf;+''''''''''''''",
"''''''''''''''+;dkBDJDDDDDDDDFDMkd:'''''''''''''''",
"''''''''''''''';wpkBBVDJJJDFVVVkdp,'''''''''''''''",
"''''''''''''''''*qddklZDDDJZldddr'''''''''''''''''",
"''''''''''''''''';::wkccMccckw:,,'''''''''''''''''",
"'''''''''''''''''OO+,wwwwwwww,OX''''''''''''''''''",
"'''''''''''''''''OO+@$$$$$$$$$OO''''''''''''''''''",
"'''''''''''''''''edp,;;;;;;;;,ddh'''''''''''''''''",
"'''''''''''''''':G/WAkkkkkkkkAW/!'''''''''''''''''",
"'''''''''''''''eG^^YLUUUUUUUEUP!(!''''''''''''''''",
"''''''''''''''o8HSnH~~W~//~Q/GgGQ^b'''''''''''''''",
"''''''''''''''@2s;7W^QKT~^TKQc*fT!f$''''''''''''''",
"'''''''''''''$6ua*5WWKDT~/TJPf$iY!IC''''''''''''''",
"''''''''''''&1axs&7WRHPR~/WPPa$sY~)W''''''''''''''",
"'''''''''''+4gzzs*7W/~~~~~~~^v*aP~(I:'''''''''''''",
"'''''''''''+4zzst$7W////~~~~/Ha6aHTDs'''''''''''''",
"'''''''''''+1ssy1#7W)~^^~~^~^WD;;BPYTS''''''''''''",
"'''''''''''@<4t1#O7W(~~~~~~)~QD<;Z^``b+'''''''''''",
"''''''''''''%=<&O 2L^((QRRW~(QV<;ZR))h+'''''''''''",
"'''''''''''''@OO'*8DR~~HMNH!!RB<-mNNN9+'''''''''''",
"''''''''''''''''$cUWYHHa*=aKPDz;#===-=''''''''''''",
"''''''''''''''''*S)~QSa1.o2MVmg-+oooo'''''''''''''",
"''''''''''''''''*n)()S=''@1szzg-+'''''''''''''''''",
"''''''''''''''''$n)^)G*''@1zzzs=o'''''''''''''''''",
"''''''''''''''''$S)~)S*''+1zzzz4='''''''''''''''''",
"''''''''''''''''*S)~)S*''+1ggzgg8#''''''''''''''''",
"'''''''''''''''6bW)~)S*''+<tuutu4#''''''''''''''''",
"''''''''''''''OeQ!W!^S*''O%11111=@''''''''''''''''",
"''''''''''''''O6DKKJKl%''O@@@@@#@+''''''''''''''''",
"''''''''''''''O&686681#'''''''''''''''''''''''''''",
"''''''''''''''++O+O++O+'''''''''''''''''''''''''''"
};
