/* XPM */
static char *result[] = {
/* columns rows colors chars-per-pixel */
"50 50 167 2 ",
"   c #E51D00",
".  c #EC1A00",
"X  c #C13400",
"o  c #CA3C00",
"O  c #E52700",
"+  c #F72100",
"@  c #FE2700",
"#  c #E73700",
"$  c #B54B1B",
"%  c #A6532F",
"&  c #AD572B",
"*  c #A95732",
"=  c #AA5935",
"-  c #AD5C39",
";  c #B05A36",
":  c #B25E3C",
">  c #BF662B",
",  c #B1613F",
"<  c #BE6A3B",
"1  c #F24705",
"2  c #E55400",
"3  c #FC5103",
"4  c #F44B13",
"5  c #E95118",
"6  c #D77A1F",
"7  c #FE630A",
"8  c #DF542F",
"9  c #DC5729",
"0  c #C35C35",
"q  c #FF522C",
"w  c #CD613B",
"e  c #DD653B",
"r  c #EA6A2D",
"t  c #E2693A",
"y  c #BF5D4A",
"u  c #B85C42",
"i  c #977054",
"p  c #9B755E",
"a  c #B36544",
"s  c #B66A4A",
"d  c #BA6B4D",
"f  c #BF704B",
"g  c #B76F53",
"h  c #BA6F52",
"j  c #BD7254",
"k  c #BC7A5E",
"l  c #A57E65",
"z  c #BF7D64",
"x  c #CA5E53",
"c  c #CC6C53",
"v  c #C17355",
"b  c #C37559",
"n  c #C4795D",
"m  c #CF7B5C",
"M  c #D77C5E",
"N  c #D17156",
"B  c #EB734C",
"V  c #E87946",
"C  c #E96E50",
"Z  c #EC7058",
"A  c #E77C5A",
"S  c #E87C58",
"D  c #DD6368",
"F  c #C27D63",
"G  c #CD7E68",
"H  c #D07862",
"J  c #EF7661",
"K  c #F57963",
"L  c #FA7F63",
"P  c #A8836E",
"I  c #BD9579",
"U  c #E7884E",
"Y  c #ED8254",
"T  c #C38166",
"R  c #C98267",
"E  c #C5846A",
"W  c #CE836A",
"Q  c #DB8566",
"!  c #D0826C",
"~  c #CB8A71",
"^  c #D38770",
"/  c #D38B74",
"(  c #D98E79",
")  c #D98C70",
"_  c #CD937C",
"`  c #D4937C",
"'  c #DB927D",
"]  c #DB9C7A",
"[  c #E08A67",
"{  c #E68C65",
"}  c #E68E73",
"|  c #F78E70",
" . c #E29170",
".. c #E2957D",
"X. c #FD957F",
"o. c #DEB972",
"O. c #E7B572",
"+. c #C59F86",
"@. c #D49681",
"#. c #DD9481",
"$. c #DD9A85",
"%. c #D29B8B",
"&. c #DF9E89",
"*. c #E68B86",
"=. c #F6868B",
"-. c #E19680",
";. c #E19A86",
":. c #E19D8A",
">. c #EC9580",
",. c #FA9980",
"<. c #F58D91",
"1. c #DCA28E",
"2. c #D5A695",
"3. c #DCA593",
"4. c #D0AC97",
"5. c #DEAC97",
"6. c #DBA99B",
"7. c #E2A18E",
"8. c #ECB483",
"9. c #E7B48B",
"0. c #E5A694",
"q. c #E5A996",
"w. c #E5AC9A",
"e. c #EAAE9C",
"r. c #E2B09F",
"t. c #EBB09D",
"y. c #DFAEA1",
"u. c #DFB0A3",
"i. c #F6A3A4",
"p. c #E2B3A5",
"a. c #EDB4A4",
"s. c #E7B7A8",
"d. c #EFB7A8",
"f. c #E5B9AE",
"g. c #ECBBAC",
"h. c #F0B7A9",
"j. c #F1BAAB",
"k. c #E7BDB0",
"l. c #F5B5B3",
"z. c #F1BEB1",
"x. c #F7BFBC",
"c. c #E3C382",
"v. c #EBC1B5",
"b. c #E5C3B9",
"n. c #ECC6BB",
"m. c #EEC8BF",
"M. c #F2C2B5",
"N. c #F0CEB7",
"B. c #F3C5BA",
"V. c #F4C9BD",
"C. c #EECBC1",
"Z. c #F4CDC3",
"A. c #F9CCC5",
"S. c #F7CFC9",
"D. c #F4D1C7",
"F. c #F6D4CC",
"G. c #F8D5CD",
"H. c #F7D7D0",
"J. c #F8D7D1",
"K. c #F7D9D1",
"L. c #F9D9D2",
"P. c #FADED9",
"I. c #F7E0DA",
"U. c #FCE2DD",
"Y. c #FDE9E5",
"T. c #FCE7E2",
"R. c None",
/* pixels */
"R.R.R.R.R.R.R.R.R.R.R.R.R.R.R.R.R.R.R.R.R.R.R.R.R.R.R.R.R.R.R.R.R.R.R.R.R.R.R.R.R.R.R.R.R.R.R.R.R.R.",
"R.R.R.R.R.R.R.R.R.R.R.R.R.R.R.R.R.R.R.R.R.R.R.R.R.R.R.R.R.R.R.R.R.R.R.R.R.R.R.R.R.R.R.R.R.R.R.R.R.R.",
"R.R.R.R.R.R.R.R.R.R.R.R.R.R.R.R.R.R.R.R.R.R.R.R.R.R.R.R.R.R.R.R.R.R.R.R.R.R.R.R.R.R.R.R.R.R.R.R.R.R.",
"R.R.R.R.R.R.R.R.R.R.R.R.R.R.R.R.R.R.R.R.R.R.R.R.R.R.R.R.R.R.R.R.R.R.R.R.R.R.R.R.R.R.R.R.R.R.R.R.R.R.",
"R.R.R.R.R.R.R.R.R.R.R.R.R.R.R.R.R.R.R.R.R.R.R.R.R.R.R.R.R.R.R.R.R.R.R.R.R.R.R.R.R.R.R.R.R.R.R.R.R.R.",
"R.R.R.R.R.R.R.R.R.R.R.R.R.R.R.R.R.R.R.R.R.R.R.R.R.R.R.R.R.R.R.R.R.R.R.R.R.R.R.R.R.R.R.R.R.R.R.R.R.R.",
"R.R.R.R.R.R.R.R.R.R.R.R.R.R.R.R.R.R.R.R.R.& * * * * = = * R.R.R.R.R.R.R.R.R.R.R.R.R.R.R.R.R.R.R.R.R.",
"R.R.R.R.R.R.R.R.R.R.R.R.R.R.R.R.R.R.R.R.f v v v v j j v j j R.R.R.R.R.R.R.R.R.R.R.R.R.R.R.R.R.R.R.R.",
"R.R.R.R.R.R.R.R.R.R.R.R.R.R.R.R.R.R.$ , ` t.t.t.e.e.w.t.t.` a - - R.R.R.R.R.R.R.R.R.R.R.R.R.R.R.R.R.",
"R.R.R.R.R.R.R.R.R.R.R.R.R.R.R.R.R.Q ) ( p.Z.V.V.Z.Z.V.Z.Z.p.` / R , R.R.R.R.R.R.R.R.R.R.R.R.R.R.R.R.",
"R.R.R.R.R.R.R.R.R.R.R.R.R.R.R.R.m t.M.j.Z.G.F.H.G.G.G.H.G.Z.j.M.q.j w R.R.R.R.R.R.R.R.R.R.R.R.R.R.R.",
"R.R.R.R.R.R.R.R.R.R.R.R.R.R.R.R.t.V.D.D.F.H.H.F.G.G.G.G.G.G.D.D.n.5.U R.R.R.R.R.R.R.R.R.R.R.R.R.R.R.",
"R.R.R.R.R.R.R.R.R.R.R.R.R.R.R.H d.D.G.K.K.K.H.H.F.H.F.F.L.L.K.K.Z.h.Y 2 R.R.R.R.R.R.R.R.R.R.R.R.R.R.",
"R.R.R.R.R.R.R.R.R.R.R.R.R.R.R.c a.Z.H.G.b.b.D.H.H.H.H.F.b.n.G.H.Z.d.B # R.R.R.R.R.R.R.R.R.R.R.R.R.R.",
"R.R.R.R.R.R.R.R.R.R.R.R.R.R.R.N a.Z.L.D.P p n.L.G.H.L.n.p P C.P.Z.d.C O R.R.R.R.R.R.R.R.R.R.R.R.R.R.",
"R.R.R.R.R.R.R.R.R.R.R.R.R.R.R.M M.D.P.C.P i n.K.F.F.K.n.i l Z.L.D.M.Z   R.R.R.R.R.R.R.R.R.R.R.R.R.R.",
"R.R.R.R.R.R.R.R.R.R.R.R.R.R.X Q D.H.L.D.+.I C.K.H.H.J.C.I +.D.K.J.D.J . R.R.R.R.R.R.R.R.R.R.R.R.R.R.",
"R.R.R.R.R.R.R.R.R.R.R.R.R.R.o [ G.K.K.F.+.I C.T.Y.Y.T.C.I +.F.K.L.F.K . R.R.R.R.R.R.R.R.R.R.R.R.R.R.",
"R.R.R.R.R.R.R.R.R.R.R.R.R.R.o [ A.Z.l.l.2.4.D.T.Y.Y.I.D.4.2.l.l.B.S.K + R.R.R.R.R.R.R.R.R.R.R.R.R.R.",
"R.R.R.R.R.R.R.R.R.R.R.R.R.R.R. .A.i.=.<.l.D.S.H.H.H.H.D.D.l.<.=.i.A.L @ R.R.R.R.R.R.R.R.R.R.R.R.R.R.",
"R.R.R.R.R.R.R.R.R.R.R.R.R.R.R.t.S.x.l.l.A.Z.y.k.H.H.b.y.C.S.l.l.B.S.,.R.R.R.R.R.R.R.R.R.R.R.R.R.R.R.",
"R.R.R.R.R.R.R.R.R.R.R.R.R.R.R.R.D.D.F.K.J.C.y.u.n.n.p.6.C.K.K.D.D.F.R.R.R.R.R.R.R.R.R.R.R.R.R.R.R.R.",
"R.R.R.R.R.R.R.R.R.R.R.R.R.R.R.R.R.j.z.D.H.F.Z.p.%.%.p.S.D.H.H.z.j.R.R.R.R.R.R.R.R.R.R.R.R.R.R.R.R.R.",
"R.R.R.R.R.R.R.R.R.R.R.R.R.R.R.R.R.*.*.@.p.A.H.C.f.k.C.L.S.u.@.} | R.R.R.R.R.R.R.R.R.R.R.R.R.R.R.R.R.",
"R.R.R.R.R.R.R.R.R.R.R.R.R.R.R.R.R.D x : ~ w.k.k.k.k.k.k.w.W : 8 R.R.R.R.R.R.R.R.R.R.R.R.R.R.R.R.R.R.",
"R.R.R.R.R.R.R.R.R.R.R.R.R.R.R.R.R.y u - a d h j j j j g h a - 8 q R.R.R.R.R.R.R.R.R.R.R.R.R.R.R.R.R.",
"R.R.R.R.R.R.R.R.R.R.R.R.R.R.R.R.R.@.@._ z g g g g g g g g z _ >.,.R.R.R.R.R.R.R.R.R.R.R.R.R.R.R.R.R.",
"R.R.R.R.R.R.R.R.R.R.R.R.R.R.R.R.R.S.G.Z.6.%.%.%.%.%.%.%.%.u.Z.G.D.R.R.R.R.R.R.R.R.R.R.R.R.R.R.R.R.R.",
"R.R.R.R.R.R.R.R.R.R.R.R.R.R.R.R.F.J.Z.B.B.n.m.m.m.m.m.n.n.v.M.D.Z.7.R.R.R.R.R.R.R.R.R.R.R.R.R.R.R.R.",
"R.R.R.R.R.R.R.R.R.R.R.R.R.R.R.5.F.S.a.$.k.L.G.D.V.Z.D.K.K.Z.z.p.1.;.S R.R.R.R.R.R.R.R.R.R.R.R.R.R.R.",
"R.R.R.R.R.R.R.R.R.R.R.R.R.R.a _ D.B.` s 3.K.G.B.a.a.M.F.G.L.Z.E d ' B 4 R.R.R.R.R.R.R.R.R.R.R.R.R.R.",
"R.R.R.R.R.R.R.R.R.R.R.R.R.R.5.g.D.M.` a 3.L.G.M.a.a.B.G.K.L.Z.T s ' } S R.R.R.R.R.R.R.R.R.R.R.R.R.R.",
"R.R.R.R.R.R.R.R.R.R.R.R.R.c.D.I.F.M.' , 1.D.V.M.M.j.M.D.V.D.M.T a ' 7...Y R.R.R.R.R.R.R.R.R.R.R.R.R.",
"R.R.R.R.R.R.R.R.R.R.R.R.R.O.N.K.F.j.` s ` j.j.V.D.F.V.j.g.j.a.n d ' ;.$...{ R.R.R.R.R.R.R.R.R.R.R.R.",
"R.R.R.R.R.R.R.R.R.R.R.R.O.8.v.M.g.` W 3.g.V.B.D.H.G.Z.B.B.V.v.n a ^ ' ;.:.Y 7 R.R.R.R.R.R.R.R.R.R.R.",
"R.R.R.R.R.R.R.R.R.R.R.R.O.M.M.M.e.c P D.L.H.F.H.H.F.F.H.H.K.D.E : b / #.#.V 7 R.R.R.R.R.R.R.R.R.R.R.",
"R.R.R.R.R.R.R.R.R.R.R.6 8.Y.Y.G.e.j T Z.K.G.G.G.F.F.F.H.F.L.D.E - u b ! ! V 7 R.R.R.R.R.R.R.R.R.R.R.",
"R.R.R.R.R.R.R.R.R.R.R.> ] J.L.A.t.j T Z.D.V.G.J.L.L.H.F.V.D.V.T % = w e t r R.R.R.R.R.R.R.R.R.R.R.R.",
"R.R.R.R.R.R.R.R.R.R.R.- R 0.0.q.1.h F n.z.d.Z.Z.n.n.m.D.M.B.Z._ a R.R.1 3 R.R.R.R.R.R.R.R.R.R.R.R.R.",
"R.R.R.R.R.R.R.R.R.R.R.R.d h f d d : j :.0.0.h.@.j j ` M.V.D.D.m.7.5 R.R.R.R.R.R.R.R.R.R.R.R.R.R.R.R.",
"R.R.R.R.R.R.R.R.R.R.R.R.R.* * * * = h ' ;.:.0.n * * v @.n.L.G.U.e.9 R.R.R.R.R.R.R.R.R.R.R.R.R.R.R.R.",
"R.R.R.R.R.R.R.R.R.R.R.R.R.R.R.R.R.= h ..;.;.;.b - R.R.d p.G.F.G.q.0 R.R.R.R.R.R.R.R.R.R.R.R.R.R.R.R.",
"R.R.R.R.R.R.R.R.R.R.R.R.R.R.R.R.R.= h #.;.;.$.b - R.R.a 1.M.j.M.;.: R.R.R.R.R.R.R.R.R.R.R.R.R.R.R.R.",
"R.R.R.R.R.R.R.R.R.R.R.R.R.R.R.R.R.- d / ( ' ( v - R.R.a 0.M.M.B.s.` k R.R.R.R.R.R.R.R.R.R.R.R.R.R.R.",
"R.R.R.R.R.R.R.R.R.R.R.R.R.R.R.R.R.- s G ^ G G h - R.R.s p.F.D.U.Y.I._ = R.R.R.R.R.R.R.R.R.R.R.R.R.R.",
"R.R.R.R.R.R.R.R.R.R.R.R.R.R.R.R.u F ^ ( ( ( ( v - R.R.s q.V.B.Z.D.A.~ = R.R.R.R.R.R.R.R.R.R.R.R.R.R.",
"R.R.R.R.R.R.R.R.R.R.R.R.R.R.R.R.- W -.-.-.#.' v - R.R.a / 1.$.&.1.$.v - R.R.R.R.R.R.R.R.R.R.R.R.R.R.",
"R.R.R.R.R.R.R.R.R.R.R.R.R.R.R.R.a H G G G G W d - R.R.- a a a a a a , - R.R.R.R.R.R.R.R.R.R.R.R.R.R.",
"R.R.R.R.R.R.R.R.R.R.R.R.R.R.R.R.- a d d d d d u - R.R.R.R.R.R.R.R.R.R.R.R.R.R.R.R.R.R.R.R.R.R.R.R.R.",
"R.R.R.R.R.R.R.R.R.R.R.R.R.R.R.R.- - - - - - - = - R.R.R.R.R.R.R.R.R.R.R.R.R.R.R.R.R.R.R.R.R.R.R.R.R."
};
