/* XPM */
static char *result[] = {
/* columns rows colors chars-per-pixel */
"50 50 97 2 ",
"   c #A8532F",
".  c #A95733",
"X  c #AB5936",
"o  c #AD5D3A",
"O  c #B05F3D",
"+  c #AF603F",
"@  c #B0603F",
"#  c #896142",
"$  c #8E674D",
"%  c #AF6040",
"&  c #B26343",
"*  c #B4674A",
"=  c #B66A4D",
"-  c #B96C4C",
";  c #B76D52",
":  c #B96F52",
">  c #BC7255",
",  c #BB745A",
"<  c #BE795E",
"1  c #BC7660",
"2  c #BF7964",
"3  c #BF7B68",
"4  c #C17759",
"5  c #C3795D",
"6  c #C67E63",
"7  c #C17D6A",
"8  c #B48C6D",
"9  c #C98166",
"0  c #C4826B",
"q  c #CB856B",
"w  c #CC896F",
"e  c #C58574",
"r  c #C78977",
"t  c #CB8B73",
"y  c #C78878",
"u  c #C98C7B",
"i  c #D28E76",
"p  c #CC917F",
"a  c #D3917A",
"s  c #D8967F",
"d  c #CD9282",
"f  c #D39782",
"g  c #DA9A84",
"h  c #D39C8B",
"j  c #DE9F8B",
"k  c #F6878C",
"l  c #F68B8F",
"z  c #C6A18F",
"x  c #CBA38D",
"c  c #D6A18D",
"v  c #C8A494",
"b  c #CFAC9D",
"n  c #D9A592",
"m  c #DBAC9B",
"M  c #E1A18D",
"N  c #E3A591",
"B  c #E3AE9D",
"V  c #E9AD9C",
"C  c #E0B09F",
"Z  c #EBB09F",
"A  c #DEAEA1",
"S  c #D9B5A3",
"D  c #DEBAAA",
"F  c #E3ADA1",
"G  c #F4A4A3",
"H  c #E4B3A4",
"J  c #EDB4A3",
"K  c #E5B7A9",
"L  c #E6BAAC",
"P  c #EEB9AA",
"I  c #F0B6A6",
"U  c #F1B7A8",
"Y  c #F1BAAB",
"T  c #ECBEB1",
"R  c #F6B3B1",
"E  c #F3BDB3",
"W  c #E4C2B6",
"Q  c #ECC1B4",
"!  c #EDC5BA",
"~  c #EEC9BF",
"^  c #F1C1B4",
"/  c #F3C6BA",
"(  c #F8C2BE",
")  c #F3C9BE",
"_  c #EDCBC1",
"`  c #F6C6C1",
"'  c #F4CCC2",
"]  c #F5D0C7",
"[  c #F7D5CD",
"{  c #F8D5CD",
"}  c #F7D8CF",
"|  c #F8D7D0",
" . c #F7D8D0",
".. c #F9DAD2",
"X. c #FCE0DA",
"o. c #FCE7E3",
"O. c None",
/* pixels */
"O.O.O.O.O.O.O.O.O.O.O.O.O.O.O.O.O.O.O.O.O.O.O.O.O.O.O.O.O.O.O.O.O.O.O.O.O.O.O.O.O.O.O.O.O.O.O.O.O.O.",
"O.O.O.O.O.O.O.O.O.O.O.O.O.O.O.O.O.O.O.O.O.O.O.O.O.O.O.O.O.O.O.O.O.O.O.O.O.O.O.O.O.O.O.O.O.O.O.O.O.O.",
"O.O.O.O.O.O.O.O.O.O.O.O.O.O.O.O.O.O.O.O.O.O.O.O.O.O.O.O.O.O.O.O.O.O.O.O.O.O.O.O.O.O.O.O.O.O.O.O.O.O.",
"O.O.O.O.O.O.O.O.O.O.O.O.O.O.O.O.O.O.O.O.O.O.O.O.O.O.O.O.O.O.O.O.O.O.O.O.O.O.O.O.O.O.O.O.O.O.O.O.O.O.",
"O.O.O.O.O.O.O.O.O.O.O.O.O.O.O.O.O.O.O.O.O.O.O.O.O.O.O.O.O.O.O.O.O.O.O.O.O.O.O.O.O.O.O.O.O.O.O.O.O.O.",
"O.O.O.O.O.O.O.O.O.O.O.O.O.O.O.O.O.O.O.O.O.O.O.O.O.O.O.O.O.O.O.O.O.O.O.O.O.O.O.O.O.O.O.O.O.O.O.O.O.O.",
"O.O.O.O.O.O.O.O.O.O.O.O.O.O.O.O.O.O.O.O.O.O.. . . . . . . O.O.O.O.O.O.O.O.O.O.O.O.O.O.O.O.O.O.O.O.O.",
"O.O.O.O.O.O.O.O.O.O.O.O.O.O.O.O.O.O.O.O.O.O.> 4 4 > 4 4 > > O.O.O.O.O.O.O.O.O.O.O.O.O.O.O.O.O.O.O.O.",
"O.O.O.O.O.O.O.O.O.O.O.O.O.O.O.O.O.O.O.+ o 4 N F V V V V V a & O O O.O.O.O.O.O.O.O.O.O.O.O.O.O.O.O.O.",
"O.O.O.O.O.O.O.O.O.O.O.O.O.O.O.O.O.O., h h m / ' ' ) ' ) Y N i i 9 O O.O.O.O.O.O.O.O.O.O.O.O.O.O.O.O.",
"O.O.O.O.O.O.O.O.O.O.O.O.O.O.O.O.O.> p ] ....[ [ { } } ] ^ U U U j 4 & O.O.O.O.O.O.O.O.O.O.O.O.O.O.O.",
"O.O.O.O.O.O.O.O.O.O.O.O.O.O.O.O.O.K ' } | { [ { { } } { { / U I I N 6 X O.O.O.O.O.O.O.O.O.O.O.O.O.O.",
"O.O.O.O.O.O.O.O.O.O.O.O.O.O.O.O.> Q ......} } { [ [ [ [ [ ] / P I I 6 X O.O.O.O.O.O.O.O.O.O.O.O.O.O.",
"O.O.O.O.O.O.O.O.O.O.O.O.O.O.O.O.* L ] W _ [ { } [ [ [ { [ [ { E I I 6 . O.O.O.O.O.O.O.O.O.O.O.O.O.O.",
"O.O.O.O.O.O.O.O.O.O.O.O.O.O.O.O.= L b $ v  .[  .[ [ [ } { } [ T I Z 6 X O.O.O.O.O.O.O.O.O.O.O.O.O.O.",
"O.O.O.O.O.O.O.O.O.O.O.O.O.O.O.O.& L b # v ..[ [ [ [ [ { } } [ E I I 6 X O.O.O.O.O.O.O.O.O.O.O.O.O.O.",
"O.O.O.O.O.O.O.O.O.O.O.O.O.O.O.O., L D 8 S [ [ [ ..[ [ [ [ [ [ T I Z 6 X O.O.O.O.O.O.O.O.O.O.O.O.O.O.",
"O.O.O.O.O.O.O.O.O.O.O.O.O.O.O.m ~ } D 8 D .. .[ [ [ ..[ [  .{ ^ U Z 6 X O.O.O.O.O.O.O.O.O.O.O.O.O.O.",
"O.O.O.O.O.O.O.O.O.O.O.O.O.O.O.m X.X.W x F R R ' [ [ [ [ } [ ' P U Z 6 X O.O.O.O.O.O.O.O.O.O.O.O.O.O.",
"O.O.O.O.O.O.O.O.O.O.O.O.O.O.X d } } } _ G l l R [ [ [ [ [ ' I I U J 6 X O.O.O.O.O.O.O.O.O.O.O.O.O.O.",
"O.O.O.O.O.O.O.O.O.O.O.O.O.O.O.H ] D K [ ` R R ` { } } { ! Y J J U J 9 X O.O.O.O.O.O.O.O.O.O.O.O.O.O.",
"O.O.O.O.O.O.O.O.O.O.O.O.O.O.O.O._ A D ] [ { [ [ } } ] ) Y J U U J N 9 O.O.O.O.O.O.O.O.O.O.O.O.O.O.O.",
"O.O.O.O.O.O.O.O.O.O.O.O.O.O.O.O.O.' ] } [ [ [ [ { [ ) U I J J J N 4 O.O.O.O.O.O.O.O.O.O.O.O.O.O.O.O.",
"O.O.O.O.O.O.O.O.O.O.O.O.O.O.O.O.O.O.] ........{ / / E U U N q i w O.O.O.O.O.O.O.O.O.O.O.O.O.O.O.O.O.",
"O.O.O.O.O.O.O.O.O.O.O.O.O.O.O.O.O.O.O.W W W T F N N N N N t O . O.O.O.O.O.O.O.O.O.O.O.O.O.O.O.O.O.O.",
"O.O.O.O.O.O.O.O.O.O.O.O.O.O.O.O.O.O.O.> > ; > ; - * = ; = & o O.O.O.O.O.O.O.O.O.O.O.O.O.O.O.O.O.O.O.",
"O.O.O.O.O.O.O.O.O.O.O.O.O.O.O.O.O.O.O.  & : > > , > ; ; > * o O.O.O.O.O.O.O.O.O.O.O.O.O.O.O.O.O.O.O.",
"O.O.O.O.O.O.O.O.O.O.O.O.O.O.O.O.O.O.O.: r h f p u f h h h 0 o O.O.O.O.O.O.O.O.O.O.O.O.O.O.O.O.O.O.O.",
"O.O.O.O.O.O.O.O.O.O.O.O.O.O.O.O.O.O.O.L ! Q J q < K ' ! _ h o X O.O.O.O.O.O.O.O.O.O.O.O.O.O.O.O.O.O.",
"O.O.O.O.O.O.O.O.O.O.O.O.O.O.O.O.O.O.] ..{ E g 6 t ! ..| ..K 6 & o O.O.O.O.O.O.O.O.O.O.O.O.O.O.O.O.O.",
"O.O.O.O.O.O.O.O.O.O.O.O.O.O.O.O.O.] ..] ^ g : i P '  .} { ) V 4 o o O.O.O.O.O.O.O.O.O.O.O.O.O.O.O.O.",
"O.O.O.O.O.O.O.O.O.O.O.O.O.O.O.O.I ' { ^ a 5 a H ' } } { { ' J 4 % , - O.O.O.O.O.O.O.O.O.O.O.O.O.O.O.",
"O.O.O.O.O.O.O.O.O.O.O.O.O.O.O.H ^ ) P g 5 q P ] } } [ [ { ' Z 4 & 3 1 > , O.O.O.O.O.O.O.O.O.O.O.O.O.",
"O.O.O.O.O.O.O.O.O.O.O.O.O.} } ] ] ^ g : a P ' [ [ [ [ } { ' Z 4 & 3 r p d , o O.O.O.O.O.O.O.O.O.O.O.",
"O.O.O.O.O.O.O.O.O.O.O.O.V / / ) ^ a 9 i J ] [ } } } [ } ..' Z 4 % 3 r y y , o O.O.O.O.O.O.O.O.O.O.O.",
"O.O.O.O.O.O.O.O.O.O.O.O.a M M M g = < P ] } [ [ { ] } [ { ' Z 4 % , 1 1 1 = o O.O.O.O.O.O.O.O.O.O.O.",
"O.O.O.O.O.O.O.O.O.O.O.O.O.- - * * o 9 ) } } } } } { [ [  .' Z 4 X % & % % % O.O.O.O.O.O.O.O.O.O.O.O.",
"O.O.O.O.O.O.O.O.O.O.O.O.O.O.O.  O.O.< c ! .. . .[ { [ [ [ ' U 5 . X O.O.O.O.O.O.O.O.O.O.O.O.O.O.O.O.",
"O.O.O.O.O.O.O.O.O.O.O.O.O.O.O.O.O.O.O.& n ! ! ' ] { [ [ [ ! N 5 O.O.O.O.O.O.O.O.O.O.O.O.O.O.O.O.O.O.",
"O.O.O.O.O.O.O.O.O.O.O.O.O.O.O.O.O.O.O.O.> , , g / ] [ [ ..F , O.O.O.O.O.O.O.O.O.O.O.O.O.O.O.O.O.O.O.",
"O.O.O.O.O.O.O.O.O.O.O.O.O.O.O.O.O.O.O.O.  o ; 6 g ^ ] { } L u : O.O.O.O.O.O.O.O.O.O.O.O.O.O.O.O.O.O.",
"O.O.O.O.O.O.O.O.O.O.O.O.O.O.O.O.O.O.O.O.o ; u , - c ^ [ { } _ t O O.O.O.O.O.O.O.O.O.O.O.O.O.O.O.O.O.",
"O.O.O.O.O.O.O.O.O.O.O.O.O.O.O.O.o X . o , y d 0 , 4 s ^ [ ..} J t O O.O.O.O.O.O.O.O.O.O.O.O.O.O.O.O.",
"O.O.O.O.O.O.O.O.O.O.O.O.O.O.O.& * = ; : 0 d d u 1 O > g ^ ' ) / B w > O.O.O.O.O.O.O.O.O.O.O.O.O.O.O.",
"O.O.O.O.O.O.O.O.O.O.O.O.O.O.o * 3 y d d e r d y , & X - j U U ) [ ) t X O.O.O.O.O.O.O.O.O.O.O.O.O.O.",
"O.O.O.O.O.O.O.O.O.O.O.O.O.O.O.& ; 7 u d u y r , * O.O.O.> f / } { / q X O.O.O.O.O.O.O.O.O.O.O.O.O.O.",
"O.O.O.O.O.O.O.O.O.O.O.O.O.O.O.O.o ; 7 u d r 1 * X O.O.O.- a ' { ^ c , X O.O.O.O.O.O.O.O.O.O.O.O.O.O.",
"O.O.O.O.O.O.O.O.O.O.O.O.O.O.O.O.O.o = 7 0 1 & o O.O.O.& g V P Y M - O.O.O.O.O.O.O.O.O.O.O.O.O.O.O.O.",
"O.O.O.O.O.O.O.O.O.O.O.O.O.O.O.O.O.O.& = = * O.O.O.O.O.o 6 q 9 9 5 O.O.O.O.O.O.O.O.O.O.O.O.O.O.O.O.O.",
"O.O.O.O.O.O.O.O.O.O.O.O.O.O.O.O.O.O.O.o o X O.O.O.O.O.o o X X X X O.O.O.O.O.O.O.O.O.O.O.O.O.O.O.O.O."
};
