/* XPM */
static char *result[] = {
/* columns rows colors chars-per-pixel */
"50 50 181 2 ",
"   c #D82C00",
".  c #DE3600",
"X  c #D13D00",
"o  c #E23C00",
"O  c #A7542F",
"+  c #B2542B",
"@  c #A95733",
"#  c #AC5A37",
"$  c #AD5D3B",
"%  c #B85A36",
"&  c #BD5C3A",
"*  c #B1613E",
"=  c #BC603A",
"-  c #DA4200",
";  c #C5471A",
":  c #C44E1A",
">  c #D9451A",
",  c #E74900",
"<  c #EE4E00",
"1  c #F55000",
"2  c #FC5300",
"3  c #FB5B00",
"4  c #F76000",
"5  c #E87716",
"6  c #F27F18",
"7  c #FE7818",
"8  c #C84921",
"9  c #C95F25",
"0  c #CA582E",
"q  c #C45E39",
"w  c #F94C2A",
"e  c #EF5737",
"r  c #FB6A33",
"t  c #8E674D",
"y  c #896142",
"u  c #AF6142",
"i  c #B26343",
"p  c #BA6444",
"a  c #B36749",
"s  c #B56A4D",
"d  c #B86C4C",
"f  c #B76E52",
"g  c #BB6F50",
"h  c #BC7255",
"j  c #BB745C",
"k  c #BE785F",
"l  c #BF7A67",
"z  c #BF7B68",
"x  c #C3684E",
"c  c #C86746",
"v  c #DA7248",
"b  c #D4714E",
"n  c #D16F51",
"m  c #C17659",
"M  c #C47A5E",
"N  c #CE7254",
"B  c #D67752",
"V  c #D5735C",
"C  c #ED694B",
"Z  c #EB6845",
"A  c #E5784A",
"S  c #EC7D4B",
"D  c #F47F49",
"F  c #E37651",
"G  c #F87356",
"H  c #C07662",
"J  c #C37B63",
"K  c #C17D6A",
"L  c #CE7B69",
"P  c #DB7569",
"I  c #FE861A",
"U  c #FE822C",
"Y  c #B48C6D",
"T  c #F68247",
"R  c #F3884A",
"E  c #EE8D5E",
"W  c #F6805D",
"Q  c #C48267",
"!  c #C98064",
"~  c #C4836A",
"^  c #CA846A",
"/  c #CC886E",
"(  c #D88A66",
")  c #D1876D",
"_  c #DC836E",
"`  c #C58675",
"'  c #C78975",
"]  c #CA8973",
"[  c #C78878",
"{  c #C98C7B",
"}  c #CD8673",
"|  c #D18D75",
" . c #CC907F",
".. c #D49179",
"X. c #DC9277",
"o. c #EA8667",
"O. c #EB8A6D",
"+. c #FA9364",
"@. c #F29768",
"#. c #EA8B74",
"$. c #F0937B",
"%. c #CE9383",
"&. c #CF9788",
"*. c #D19787",
"=. c #DA9A84",
"-. c #D29B8B",
";. c #DC9E8B",
":. c #F6878C",
">. c #F68B8F",
",. c #E39E88",
"<. c #ED9E8B",
"1. c #F99B85",
"2. c #C6A18F",
"3. c #CBA38D",
"4. c #DFA28E",
"5. c #D6A18D",
"6. c #CAA798",
"7. c #DEAB9A",
"8. c #E1A18D",
"9. c #EDAD88",
"0. c #FEA983",
"q. c #F2A188",
"w. c #FAB08F",
"e. c #E3A592",
"r. c #E3AF9E",
"t. c #E9AD9C",
"y. c #F4AE9B",
"u. c #EDB19F",
"i. c #F7B09C",
"p. c #FCBF9F",
"a. c #F8B294",
"s. c #CDACA0",
"d. c #DEAEA1",
"f. c #D9B5A3",
"g. c #DCBAAA",
"h. c #E3ADA1",
"j. c #F4A4A3",
"k. c #E3B2A2",
"l. c #EEB4A4",
"z. c #EFB7A8",
"x. c #E5B9AD",
"c. c #EEB9AA",
"v. c #E2B6AB",
"b. c #F0B6A5",
"n. c #FBBFA0",
"m. c #F1B7A8",
"M. c #F1BAAB",
"N. c #F8BCA8",
"B. c #E7BDB0",
"V. c #EBBEB2",
"C. c #F6B3B1",
"Z. c #F2BDB3",
"A. c #F6C09F",
"S. c #F9C19E",
"D. c #FCC3A1",
"F. c #E4C2B6",
"G. c #EEC2B6",
"H. c #ECC4B9",
"J. c #EFC9BE",
"K. c #F1C1B4",
"L. c #FECEB2",
"P. c #F3C6BA",
"I. c #F8C2BE",
"U. c #F4C9BE",
"Y. c #EECBC2",
"T. c #EFCFC9",
"R. c #F6C6C1",
"E. c #F4CDC3",
"W. c #F5D0C7",
"Q. c #F9D0C6",
"!. c #F7D5CD",
"~. c #F9D5CC",
"^. c #F7D8CF",
"/. c #F7D7D0",
"(. c #F8D7D0",
"). c #F7D9D1",
"_. c #F9D9D2",
"`. c #FADDD9",
"'. c #FAE0DB",
"]. c #FCE7E3",
"[. c None",
/* pixels */
"[.[.[.[.[.[.[.[.[.[.[.[.[.[.[.[.[.[.[.[.[.[.[.[.[.[.[.[.[.[.[.[.[.[.[.[.[.[.[.[.[.[.[.[.[.[.[.[.[.[.",
"[.[.[.[.[.[.[.[.[.[.[.[.[.[.[.[.[.[.[.[.[.[.[.[.[.[.[.[.[.[.[.[.[.[.[.[.[.[.[.[.[.[.[.[.[.[.[.[.[.[.",
"[.[.[.[.[.[.[.[.[.[.[.[.[.[.[.[.[.[.[.[.[.[.[.[.[.[.[.[.[.[.[.[.[.[.[.[.[.[.[.[.[.[.[.[.[.[.[.[.[.[.",
"[.[.[.[.[.[.[.[.[.[.[.[.[.[.[.[.[.[.[.[.[.[.[.[.[.[.[.[.[.[.[.[.[.[.[.[.[.[.[.[.[.[.[.[.[.[.[.[.[.[.",
"[.[.[.[.[.[.[.[.[.[.[.[.[.[.[.[.[.[.[.[.[.[.[.[.[.[.[.[.[.[.[.[.[.[.[.[.[.[.[.[.[.[.[.[.[.[.[.[.[.[.",
"[.[.[.[.[.[.[.[.[.[.[.[.[.[.[.[.[.[.[.[.[.[.[.[.[.[.[.[.[.[.[.[.[.[.[.[.[.[.[.[.[.[.[.[.[.[.[.[.[.[.",
"[.[.[.[.[.[.[.[.[.[.[.[.[.[.[.[.[.[.[.[.[.@ @ O @ @ @ @ [.[.[.[.[.[.[.[.[.[.[.[.[.[.[.[.[.[.[.[.[.[.",
"[.[.[.[.[.[.[.[.[.[.[.[.[.[.[.[.[.[.[.[.h h m m m h m h [.[.[.[.[.[.[.[.[.[.[.[.[.[.[.[.[.[.[.[.[.[.",
"[.[.[.[.[.[.[.[.[.[.[.[.[.[.[.[.[.$ $ i ..l.t.t.t.t.u.e.h $ $ [.[.[.[.[.[.[.[.[.[.[.[.[.[.[.[.[.[.[.",
"[.[.[.[.[.[.[.[.[.[.[.[.[.[.[.[.$ ^ | ..e.M.U.R.E.U.R.P.7.5.5.c [.[.[.[.[.[.[.[.[.[.[.[.[.[.[.[.[.[.",
"[.[.[.[.[.[.[.[.[.[.[.[.[.[.[.= m 8.m.b.m.K.W./.~.^.^.!.^._.W.( 9 [.[.[.[.[.[.[.[.[.[.[.[.[.[.[.[.[.",
"[.[.[.[.[.[.[.[.[.[.[.[.[.[.X v e.l.l.z.P.!.!.!.~.^.^.!.^.^.!.J.9.5 [.[.[.[.[.[.[.[.[.[.[.[.[.[.[.[.",
"[.[.[.[.[.[.[.[.[.[.[.[.[.[.- A b.z.m.P.E././.!.!.^.!.!.^.^._.`.D.6 [.[.[.[.[.[.[.[.[.[.[.[.[.[.[.[.",
"[.[.[.[.[.[.[.[.[.[.[.[.[.[., S u.z.Z.W./.!.^.!.!.~.!.!.^.Y.F.T.S.I [.[.[.[.[.[.[.[.[.[.[.[.[.[.[.[.",
"[.[.[.[.[.[.[.[.[.[.[.[.[.[.< S t.z.K.!./.!.!.!.^.!.^.!._.6.t s.D.I [.[.[.[.[.[.[.[.[.[.[.[.[.[.[.[.",
"[.[.[.[.[.[.[.[.[.[.[.[.[.[.1 D l.z.K.W././.~.!./.!.^.~._.2.y 6.S.7 [.[.[.[.[.[.[.[.[.[.[.[.[.[.[.[.",
"[.[.[.[.[.[.[.[.[.[.[.[.[.[.2 D i.l.V.W.^.!.^.!.!.!./.^./.f.Y g.n.U [.[.[.[.[.[.[.[.[.[.[.[.[.[.[.[.",
"[.[.[.[.[.[.[.[.[.[.[.[.[.[.2 T l.z.Z.^./.^.!.!.!.!.)._._.f.Y g.~.L.0.[.[.[.[.[.[.[.[.[.[.[.[.[.[.[.",
"[.[.[.[.[.[.[.[.[.[.[.[.[.[.3 T l.b.M.R.W./.^.W.!./.R.C.Z.h.3.F.'.].0.[.[.[.[.[.[.[.[.[.[.[.[.[.[.[.",
"[.[.[.[.[.[.[.[.[.[.[.[.[.[.4 R l.b.b.c.P.!.^.^.!.~.C.>.:.j.E.W./.~.+.2 [.[.[.[.[.[.[.[.[.[.[.[.[.[.",
"[.[.[.[.[.[.[.[.[.[.[.[.[.[.[.@.l.l.l.l.c.U.!.^.!.!.R.C.C.R.!.v.v.W.w.[.[.[.[.[.[.[.[.[.[.[.[.[.[.[.",
"[.[.[.[.[.[.[.[.[.[.[.[.[.[.[.[.u.l.b.b.b.c.E.W.!.^././././.W.k.d.E.[.[.[.[.[.[.[.[.[.[.[.[.[.[.[.[.",
"[.[.[.[.[.[.[.[.[.[.[.[.[.[.[.[.[.i.l.l.z.z.b.P.!.!.!././././.T.E.[.[.[.[.[.[.[.[.[.[.[.[.[.[.[.[.[.",
"[.[.[.[.[.[.[.[.[.[.[.[.[.[.[.[.[.[.X./ 4.M.M.K.P.P.Q._._._.(.Q.[.[.[.[.[.[.[.[.[.[.[.[.[.[.[.[.[.[.",
"[.[.[.[.[.[.[.[.[.[.[.[.[.[.[.[.[.[.[.% / e.e.4.e.e.h.V.F.G.K.[.[.[.[.[.[.[.[.[.[.[.[.[.[.[.[.[.[.[.",
"[.[.[.[.[.[.[.[.[.[.[.[.[.[.[.[.[.[.[.> q d d s d d d h h N G [.[.[.[.[.[.[.[.[.[.[.[.[.[.[.[.[.[.[.",
"[.[.[.[.[.[.[.[.[.[.[.[.[.[.[.[.[.[.[.8 p h h h f h f f f c w [.[.[.[.[.[.[.[.[.[.[.[.[.[.[.[.[.[.[.",
"[.[.[.[.[.[.[.[.[.[.[.[.[.[.[.[.[.[.[.d ' -.*. .{ *.-.-.-._ e [.[.[.[.[.[.[.[.[.[.[.[.[.[.[.[.[.[.[.",
"[.[.[.[.[.[.[.[.[.[.[.[.[.[.[.[.[.[.E k.H.H.k.^ j ;.x.J.E.;.& [.[.[.[.[.[.[.[.[.[.[.[.[.[.[.[.[.[.[.",
"[.[.[.[.[.[.[.[.[.[.[.[.[.[.[.[.[.+.a.~.~.Z.=.L / l.Q./._.x.' h [.[.[.[.[.[.[.[.[.[.[.[.[.[.[.[.[.[.",
"[.[.[.[.[.[.[.[.[.[.[.[.[.[.[.[.r N.^.W.K.=.h ] c.E.!.W.^.^.J.Q # [.[.[.[.[.[.[.[.[.[.[.[.[.[.[.[.[.",
"[.[.[.[.[.[.[.[.[.[.[.[.[.[.[.Z q.U.^.K...M ..l.E.~.^.!.^._.W.~ * H [.[.[.[.[.[.[.[.[.[.[.[.[.[.[.[.",
"[.[.[.[.[.[.[.[.[.[.[.[.[.C C $.Z.E.c.=.M ^ c.W.).^.!.!.^./.E.~ u l L P [.[.[.[.[.[.[.[.[.[.[.[.[.[.",
"[.[.[.[.[.[.[.[.[.[.[.  #.U.E.E.W.K.=.h | c.E.W.^.^.!.!.^.).Y.~ i l [ %.%.[.[.[.[.[.[.[.[.[.[.[.[.[.",
"[.[.[.[.[.[.[.[.[.[.[.o o.U.R.U.K...! | k.W.!.^.!.!.!.!.^./.E.Q i H ` ` ` } [.[.[.[.[.[.[.[.[.[.[.[.",
"[.[.[.[.[.[.[.[.[.[.[.o A 8.8.8.=.d m l.Q.^.~.^.^.~.!.!.^.).W.] p l H H K L [.[.[.[.[.[.[.[.[.[.[.[.",
"[.[.[.[.[.[.[.[.[.[.[.[.0 q p d a # m u.U.^.!.!.!.!.^.^.!./.W.q.n i x V V [.[.[.[.[.[.[.[.[.[.[.[.[.",
"[.[.[.[.[.[.[.[.[.[.[.[.[.[.[.[.@ @ m b.E.!.^.!.^.!.W.^.).R.i.1.[.[.c [.[.[.[.[.[.[.[.[.[.[.[.[.[.[.",
"[.[.[.[.[.[.[.[.[.[.[.[.[.[.[.[.[.# j e.P./.!.!.!.!.(.^.U.i.W [.[.[.[.[.[.[.[.[.[.[.[.[.[.[.[.[.[.[.",
"[.[.[.[.[.[.[.[.[.[.[.[.[.[.[.[.[.[.[.h r._.^.^.!.!./.R.O.Z [.[.[.[.[.[.[.[.[.[.[.[.[.[.[.[.[.[.[.[.",
"[.[.[.[.[.[.[.[.[.[.[.[.[.[.[.[.[.[.$ a ' k.!._.^.^._.P.b ; [.[.[.[.[.[.[.[.[.[.[.[.[.[.[.[.[.[.[.[.",
"[.[.[.[.[.[.[.[.[.[.[.[.[.[.[.[.[.$ d z s l x.!.!.^._.J.Q * [.[.[.[.[.[.[.[.[.[.[.[.[.[.[.[.[.[.[.[.",
"[.[.[.[.[.[.[.[.[.[.[.[.[.[.[.[.$ l ` { l j J d.)./.^.W.F...$ O + : [.[.[.[.[.[.[.[.[.[.[.[.[.[.[.[.",
"[.[.[.[.[.[.[.[.[.[.[.[.[.[.[.a h [ &.%.' j $ ~ k.P.W.^.~.k.~ Q ! B c [.[.[.[.[.[.[.[.[.[.[.[.[.[.[.",
"[.[.[.[.[.[.[.[.[.[.[.[.[.[.# h { %.%.%.` j * $ h e.P.W.Z.Z.Y.E.P.t.M # [.[.[.[.[.[.[.[.[.[.[.[.[.[.",
"[.[.[.[.[.[.[.[.[.[.[.[.[.[.# f ` %.&.%.l i [.[.[.m =.P.U.W._.Q.u.~ g [.[.[.[.[.[.[.[.[.[.[.[.[.[.[.",
"[.[.[.[.[.[.[.[.[.[.[.[.[.[.# a j ` %.{ h u [.[.[.# M 4.P.W.E.r.| * [.[.[.[.[.[.[.[.[.[.[.[.[.[.[.[.",
"[.[.[.[.[.[.[.[.[.[.[.[.[.[.[.[.u l K K l j $ [.[.[.$ g 8.M.l.! * [.[.[.[.[.[.[.[.[.[.[.[.[.[.[.[.[.",
"[.[.[.[.[.[.[.[.[.[.[.[.[.[.[.[.[.a s s f a $ [.[.[.[.[.M ^ ! d [.[.[.[.[.[.[.[.[.[.[.[.[.[.[.[.[.[.",
"[.[.[.[.[.[.[.[.[.[.[.[.[.[.[.[.[.$ $ # # # $ [.[.[.[.[.# # # [.[.[.[.[.[.[.[.[.[.[.[.[.[.[.[.[.[.[."
};
