/* XPM */
static char *result[] = {
/* columns rows colors chars-per-pixel */
"50 50 131 2 ",
"   c #350900",
".  c #360900",
"X  c #350A00",
"o  c #360A00",
"O  c #370A00",
"+  c #360B00",
"@  c #370B00",
"#  c #370C00",
"$  c #380C00",
"%  c #380C01",
"&  c #380D01",
"*  c #390D01",
"=  c #390E01",
"-  c #3A0E01",
";  c #3A0F01",
":  c #3A0E02",
">  c #3A0F02",
",  c #3B0F02",
"<  c #3B1002",
"1  c #3B1102",
"2  c #3C1002",
"3  c #3C1102",
"4  c #3C1103",
"5  c #3D1103",
"6  c #3C1203",
"7  c #3D1203",
"8  c #3D1303",
"9  c #3E1303",
"0  c #3E1403",
"q  c #3F1403",
"w  c #3E1304",
"e  c #3E1404",
"r  c #3F1404",
"t  c #3F1504",
"y  c #421200",
"u  c #431200",
"i  c #431300",
"p  c #451500",
"a  c #441602",
"s  c #401504",
"d  c #401505",
"f  c #401604",
"g  c #401605",
"h  c #411605",
"j  c #411705",
"k  c #421705",
"l  c #491600",
"z  c #4A1700",
"x  c #421805",
"c  c #431805",
"v  c #421806",
"b  c #431906",
"n  c #431A06",
"m  c #461904",
"M  c #441A06",
"N  c #441B06",
"B  c #451B06",
"V  c #441A07",
"C  c #451B07",
"Z  c #451C07",
"A  c #461C07",
"S  c #461D07",
"D  c #471D07",
"F  c #471E07",
"G  c #4B1800",
"H  c #481902",
"J  c #4D1A01",
"K  c #481E07",
"L  c #4C1E04",
"P  c #461D08",
"I  c #471D08",
"U  c #471E08",
"Y  c #481E08",
"T  c #481F08",
"R  c #491F08",
"E  c #482008",
"W  c #492008",
"Q  c #492009",
"!  c #492109",
"~  c #4A2009",
"^  c #4A2109",
"/  c #4A2209",
"(  c #4B2209",
")  c #4B2309",
"_  c #4B220A",
"`  c #4B230A",
"'  c #4C230A",
"]  c #4C240A",
"[  c #4D240A",
"{  c #4D250A",
"}  c #4C240B",
"|  c #4D240B",
" . c #4D250B",
".. c #4E250B",
"X. c #4E260B",
"o. c #4F260B",
"O. c #4E270B",
"+. c #4F270B",
"@. c #4F270C",
"#. c #502207",
"$. c #552404",
"%. c #562605",
"&. c #50270B",
"*. c #52270A",
"=. c #50270C",
"-. c #50280C",
";. c #50290C",
":. c #51290C",
">. c #51290D",
",. c #512A0C",
"<. c #512A0D",
"1. c #522A0C",
"2. c #522A0D",
"3. c #522B0D",
"4. c #532B0D",
"5. c #542B0C",
"6. c #532C0D",
"7. c #532C0E",
"8. c #542C0E",
"9. c #542D0E",
"0. c #552D0E",
"q. c #552E0E",
"w. c #552F0E",
"e. c #552E0F",
"r. c #552F0F",
"t. c #562E0E",
"y. c #562F0E",
"u. c #562E0F",
"i. c #562F0F",
"p. c #56300F",
"a. c None",
/* pixels */
"i.i.i.q.i.p.2.K a i u i i i i i i i i i u u H #.5.i.i.i.i.i.e.[ m i u i i i i i i i i i u y p L *.a.",
"i.i.i.i.9.{ k $ o o o o o o o o o o o   & x  .q.i.i.i.i.i.<.U 4 o o o o o o o o o o o   o 7 T 3.y.a.",
"i.i.q.+.x =     o o o o o o o       @ f ] 8.i.i.i.i.i.6.Q 8 +     o o o o o o o     o , U :.i.i.e.a.",
"q.-.N = o     o o o o o o o     @ e ` 8.i.i.t.i.i.6._ 8 @     o o o o o o o     o > B :.q.i.i.i.i.a.",
"B , o     o o o o o o o     @ 9 Q 7.w.i.i.i.i.9.` s @       o o o o o o o     - M +.q.i.i.u.i.q.+.a.",
"    o o o o o o o o     o 4 T 2.i.i.i.i.i.0. .j %     o o o o o o o       % c ..q.i.i.i.i.q.:.C < a.",
"  o o o o o o o     o < F <.q.i.i.i.i.0.+.x *     o o o o o o o o     % f { 9.i.i.i.i.q.2.I < o   a.",
"o o o o o o o   . , C :.q.i.i.i.i.q.@.V * o     o o o o o o o     # t ' 9.i.i.i.i.i.2.R 4 o     o a.",
"o o o o     . = M +.q.i.i.i.i.q.:.Z < o   . o o o o o o       + e ^ 6.i.i.i.i.i.6.Q e o     o o o a.",
"o o     o & x X.9.i.i.i.i.q.2.U 2 o     o o o o o o o     o 3 Q 2.i.i.e.i.i.8.` q #     o o o o o a.",
"o     & h  .9.i.i.q.i.i.2.W 4 o     o o o o o o o     o 2 I 2.q.i.i.i.i.9.[ g #       o o o o o o a.",
"  @ s ` 9.i.i.i.i.i.6.^ 9 o       o o o o o o o     < Z ;.q.i.i.i.i.q. .v %       o o o o o o o   a.",
"r / 6.i.i.i.i.i.9.` t #     o o o o o o o     o = V @.q.i.i.i.i.q.&.b =     o o o o o o o       @ a.",
"6.i.i.i.i.i.9. .f $     o o o o o o o       * v +.0.i.i.i.i.q.-.C = o     o o o o o o o     @ 9 ` a.",
"i.i.i.i.0...x % o     o o o o o o o     & j  .q.i.i.i.i.y.:.P < o     o o o o o o o     + 8 Q 6.e.a.",
"i.i.q.+.b =     o o o o o o o       @ s ' 9.i.i.i.i.r.3.U 5 o   o o o o o o o o     o 4 T 2.i.i.i.a.",
"q.;.C ; o     o o o o o o o     @ 9 ( 6.i.i.e.i.i.6.Q 7 @     o o o o o o o     o , S >.q.i.i.i.i.a.",
"A < o     o o o o o o o     @ 7 Q 6.q.i.i.i.i.6.( e @       o o o o o o o     > M ;.q.i.i.e.i.i.<.a.",
"o     o o o o o o o     o 4 U 2.i.i.i.i.i.9.' f #     o o o o o o o       * M X.q.i.i.i.i.i.6.Q 9 a.",
"  o o o o o o o     o > S :.q.i.i.i.i.9.X.j &     o o o o o o o     . % k X.9.i.i.i.i.i.8._ 0 @   a.",
"o o o o o o     X ; N ;.q.i.i.i.i.q.O.b & o     o o o o o o o     % f [ 9.i.i.e.i.i.8.] t @     o a.",
"o o o o .     = b X.q.i.i.i.i.e.@.N :       o o o o o o o     @ t ( 9.i.i.i.i.i.q.| k $       o o a.",
"o o     . $ x ..9.i.i.i.i.q.,.Z < X   o o o o o o o o     o 9 ^ 4.i.i.e.i.i.q.@.b =     o o o o o a.",
"o     % s [ 9.i.i.i.i.q.2.U < o     o o o o o o o     o 3 T 4.y.i.i.i.i.q.-.V = o     o o o o o o a.",
"  @ t ( 9.i.i.i.i.i.3.E 7 o     . o o o o o o o   o 3 I 2.i.i.i.q.i.q.-.S > o     o o o o o o o o a.",
"q ^ 4.i.i.i.i.i.7.^ w @     o o o o o o o     o > A -.i.i.q.i.i.q.3.D 3 o   o o o o o o o o     o a.",
"4.y.i.i.i.i.8.' r #     o o o o o o o     o * M -.q.i.i.i.i.i.4.W 5 @     o o o o o o o     o < U a.",
"i.i.i.i.9.| j @       o o o o o o o     * x o.q.i.i.q.i.i.4.^ 9 @     o o o o o o o o   o > C :.q.a.",
"i.i.q...x *     o o o o o o o       % j [ 9.i.i.i.i.i.9.( s @     o o o o o o o     o = M +.q.i.i.a.",
"q.-.b -     o o o o o o o X     @ t ' 8.i.i.q.i.i.9. .f %     o o o o o o o       & x X.9.i.i.i.i.a.",
"N > o     o o o o o o o     @ w / 8.i.i.i.i.i.9.X.x %       o o o o o o o     & g  .9.i.i.u.i.q.-.a.",
"o     o o o o o o o     o 8 R 4.i.i.i.i.i.q.+.M =       o o o o o o o     @ d ` 9.i.i.i.i.i.,.U 2 a.",
"o o o o o o o o     o < Y <.i.i.q.i.i.q.:.C , .   o o o o o o o o     o 9 ( 4.i.i.i.i.i.4.T 7 o   a.",
"o o o o o o     o > A :.q.i.i.i.i.e.,.U , o     o o o o o o o     + 7 W 4.i.i.i.i.i.4.^ 7 @     o a.",
"o o o o o     > M -.q.i.i.q.i.i.2.T 4 o     o o o o o o o o   o 4 U 2.q.i.i.i.i.8.( t @       o o a.",
"o o     o & b X.q.i.i.i.i.i.6.Q 9 O     o o o o o o o     o > S ;.i.i.u.i.i.9.] g %     o o o o o a.",
"X     % j X.9.i.i.e.i.i.8.` e @     o o o o o o o     o = M -.q.i.i.i.i.9.X.j &     o o o o o o o a.",
"  % f ] 9.i.i.i.i.i.9.] g @       o o o o o o o     = b +.q.i.i.i.i.q.+.n & o     o o o o o o o   a.",
"s / 6.i.i.i.i.i.q. .x &     o o o o o o o       % x  .q.i.i.i.i.q.-.C > o     o o o o o o       @ a.",
"4.i.i.q.i.i.q.@.b =     o o o o o o o       @ s ] 9.i.i.i.i.q.<.S < o     o o o o o o o     + 7 ~ a.",
"i.i.i.i.q.-.C = o     o o o o o o o     @ r _ 8.i.i.i.i.i.2.T 1 o     o o o o o o o     o 4 Y 3.q.a.",
"i.i.i.:.S < o     o o o o o o o     o 9 Q 4.i.i.i.i.i.4.W 8 o     . o o o o o o .     < S :.e.i.i.a.",
"q.3.U 3 o     o o o o o o o     o 3 T <.i.i.u.i.i.8._ r @     o o o o o o o     o - B =.q.i.i.i.i.a.",
"R 7 +     o o o o o o o     o , S 1.q.i.i.i.i.8.} s #     o o o o o o o       = b @.q.i.i.u.i.i.4.a.",
"o       o o o o o o o     , C -.q.i.i.i.i.9. .x %       o o o o o o o     & x ..q.i.i.i.i.i.6.( t a.",
"X o o o o o o o       * M +.q.i.i.i.i.q.@.b =     o o o o o o o       @ g ] 9.i.i.i.i.i.9.] f %   a.",
"o o o o o o       & x X.9.i.i.i.i.q.-.V - o     o o o o o o o     @ e ' 6.i.i.q.i.i.9.X.k &     o a.",
"o o o o o     % h [ 0.i.i.i.i.r.;.A > o     o o o o o o o     @ 8 ! 8.i.i.i.i.i.q.X.M * o     o o a.",
"o o o o o @ s ) 8.i.i.i.i.y.2.U 4 o . o o o o o o o o o o o 6 T 2.i.i.i.i.y.t.-.C > X . o o o o o a.",
"z z z z a.a.a.a.a.a.a.a.a.a.%.J l z z z z z z z z z z z a.a.a.a.a.a.a.a.a.a.a.$.G l z z z z z z z a."
};
